<svg width="133" height="33" viewBox="0 0 133 33" fill="none" xmlns="http://www.w3.org/2000/svg">
<path d="M5 14.9358C4.73478 14.9358 4.48043 14.8304 4.29289 14.6429C4.10536 14.4553 4 14.201 4 13.9358V5.93776C4 5.67254 4.10536 5.41819 4.29289 5.23065C4.48043 5.04312 4.73478 4.93776 5 4.93776H13C13.2652 4.93776 13.5196 5.04312 13.7071 5.23065C13.8946 5.41819 14 5.67254 14 5.93776V13.9358C14 14.201 13.8946 14.4553 13.7071 14.6429C13.5196 14.8304 13.2652 14.9358 13 14.9358H5ZM19 14.9358C18.7348 14.9358 18.4804 14.8304 18.2929 14.6429C18.1054 14.4553 18 14.201 18 13.9358V5.93776C18 5.67254 18.1054 5.41819 18.2929 5.23065C18.4804 5.04312 18.7348 4.93776 19 4.93776H26.998C27.2632 4.93776 27.5176 5.04312 27.7051 5.23065C27.8926 5.41819 27.998 5.67254 27.998 5.93776V13.9358C27.998 14.201 27.8926 14.4553 27.7051 14.6429C27.5176 14.8304 27.2632 14.9358 26.998 14.9358H19ZM5 28.9358C4.73478 28.9358 4.48043 28.8304 4.29289 28.6429C4.10536 28.4553 4 28.201 4 27.9358V19.9358C4 19.6705 4.10536 19.4162 4.29289 19.2287C4.48043 19.0411 4.73478 18.9358 5 18.9358H13C13.2652 18.9358 13.5196 19.0411 13.7071 19.2287C13.8946 19.4162 14 19.6705 14 19.9358V27.9358C14 28.201 13.8946 28.4553 13.7071 28.6429C13.5196 28.8304 13.2652 28.9358 13 28.9358H5ZM19 28.9358C18.7348 28.9358 18.4804 28.8304 18.2929 28.6429C18.1054 28.4553 18 28.201 18 27.9358V19.9358C18 19.6705 18.1054 19.4162 18.2929 19.2287C18.4804 19.0411 18.7348 18.9358 19 18.9358H26.998C27.2632 18.9358 27.5176 19.0411 27.7051 19.2287C27.8926 19.4162 27.998 19.6705 27.998 19.9358V27.9358C27.998 28.201 27.8926 28.4553 27.7051 28.6429C27.5176 28.8304 27.2632 28.9358 26.998 28.9358H19Z" fill="#3E70E8"/>
<path d="M61.1676 17.3903C61.1676 18.8179 60.897 20.0324 60.3558 21.0338C59.8189 22.0352 59.0859 22.8001 58.157 23.3285C57.2322 23.8527 56.1925 24.1147 55.0376 24.1147C53.8743 24.1147 52.8303 23.8505 51.9055 23.3221C50.9808 22.7937 50.25 22.0288 49.7131 21.0274C49.1761 20.026 48.9077 18.8136 48.9077 17.3903C48.9077 15.9627 49.1761 14.7483 49.7131 13.7468C50.25 12.7454 50.9808 11.9826 51.9055 11.4585C52.8303 10.9301 53.8743 10.6659 55.0376 10.6659C56.1925 10.6659 57.2322 10.9301 58.157 11.4585C59.0859 11.9826 59.8189 12.7454 60.3558 13.7468C60.897 14.7483 61.1676 15.9627 61.1676 17.3903ZM58.3615 17.3903C58.3615 16.4656 58.223 15.6858 57.946 15.0508C57.6733 14.4159 57.2876 13.9343 56.7891 13.6062C56.2905 13.2781 55.7067 13.114 55.0376 13.114C54.3686 13.114 53.7848 13.2781 53.2862 13.6062C52.7876 13.9343 52.3999 14.4159 52.1229 15.0508C51.8501 15.6858 51.7138 16.4656 51.7138 17.3903C51.7138 18.315 51.8501 19.0949 52.1229 19.7298C52.3999 20.3647 52.7876 20.8463 53.2862 21.1744C53.7848 21.5025 54.3686 21.6666 55.0376 21.6666C55.7067 21.6666 56.2905 21.5025 56.7891 21.1744C57.2876 20.8463 57.6733 20.3647 57.946 19.7298C58.223 19.0949 58.3615 18.315 58.3615 17.3903ZM72.3201 14.1176L68.8876 23.9358H65.8194L62.3869 14.1176H65.2633L67.3024 21.1424H67.4047L69.4373 14.1176H72.3201ZM77.8716 24.1275C76.8617 24.1275 75.9924 23.923 75.2637 23.5139C74.5392 23.1005 73.981 22.5167 73.589 21.7625C73.1969 21.0039 73.0009 20.1069 73.0009 19.0714C73.0009 18.0615 73.1969 17.1751 73.589 16.4123C73.981 15.6495 74.5328 15.0551 75.2445 14.6289C75.9604 14.2028 76.7999 13.9897 77.763 13.9897C78.4107 13.9897 79.0137 14.0941 79.5719 14.3029C80.1344 14.5075 80.6245 14.8164 81.0421 15.2298C81.464 15.6431 81.7921 16.163 82.0265 16.7895C82.2608 17.4116 82.378 18.1403 82.378 18.9755V19.7234H74.0875V18.0359H79.8148C79.8148 17.6439 79.7296 17.2966 79.5591 16.994C79.3887 16.6914 79.1522 16.4549 78.8496 16.2845C78.5513 16.1098 78.204 16.0224 77.8077 16.0224C77.3944 16.0224 77.0279 16.1183 76.7083 16.31C76.3929 16.4975 76.1458 16.7511 75.9668 17.0707C75.7878 17.386 75.6962 17.7376 75.6919 18.1254V19.7298C75.6919 20.2156 75.7814 20.6353 75.9604 20.989C76.1436 21.3427 76.4015 21.6154 76.7338 21.8072C77.0662 21.999 77.4604 22.0949 77.9164 22.0949C78.2189 22.0949 78.4959 22.0522 78.7473 21.967C78.9988 21.8818 79.214 21.7539 79.3929 21.5835C79.5719 21.413 79.7083 21.2042 79.802 20.9571L82.3205 21.1233C82.1926 21.7284 81.9306 22.2568 81.5343 22.7085C81.1422 23.1559 80.6351 23.5054 80.013 23.7568C79.3951 24.0039 78.6813 24.1275 77.8716 24.1275ZM84.155 23.9358V14.1176H86.7949V15.8306H86.8972C87.0762 15.2213 87.3766 14.761 87.7985 14.45C88.2203 14.1346 88.7061 13.977 89.2559 13.977C89.3922 13.977 89.5392 13.9855 89.6969 14.0025C89.8546 14.0196 89.9931 14.043 90.1124 14.0728V16.489C89.9846 16.4507 89.8077 16.4166 89.5819 16.3868C89.356 16.3569 89.1493 16.342 88.9618 16.342C88.5613 16.342 88.2033 16.4294 87.888 16.6041C87.5769 16.7745 87.3297 17.0132 87.1465 17.32C86.9675 17.6268 86.878 17.9805 86.878 18.3811V23.9358H84.155ZM100.972 14.1176L97.54 23.9358H94.4718L91.0392 14.1176H93.9157L95.9547 21.1424H96.057L98.0897 14.1176H100.972ZM102.366 23.9358V14.1176H105.089V23.9358H102.366ZM103.734 12.852C103.329 12.852 102.982 12.7177 102.692 12.4493C102.406 12.1765 102.264 11.8505 102.264 11.4713C102.264 11.0963 102.406 10.7745 102.692 10.5061C102.982 10.2333 103.329 10.097 103.734 10.097C104.139 10.097 104.484 10.2333 104.769 10.5061C105.059 10.7745 105.204 11.0963 105.204 11.4713C105.204 11.8505 105.059 12.1765 104.769 12.4493C104.484 12.7177 104.139 12.852 103.734 12.852ZM111.745 24.1275C110.735 24.1275 109.865 23.923 109.137 23.5139C108.412 23.1005 107.854 22.5167 107.462 21.7625C107.07 21.0039 106.874 20.1069 106.874 19.0714C106.874 18.0615 107.07 17.1751 107.462 16.4123C107.854 15.6495 108.406 15.0551 109.118 14.6289C109.833 14.2028 110.673 13.9897 111.636 13.9897C112.284 13.9897 112.887 14.0941 113.445 14.3029C114.007 14.5075 114.498 14.8164 114.915 15.2298C115.337 15.6431 115.665 16.163 115.9 16.7895C116.134 17.4116 116.251 18.1403 116.251 18.9755V19.7234H107.961V18.0359H113.688C113.688 17.6439 113.603 17.2966 113.432 16.994C113.262 16.6914 113.025 16.4549 112.723 16.2845C112.424 16.1098 112.077 16.0224 111.681 16.0224C111.267 16.0224 110.901 16.1183 110.581 16.31C110.266 16.4975 110.019 16.7511 109.84 17.0707C109.661 17.386 109.569 17.7376 109.565 18.1254V19.7298C109.565 20.2156 109.654 20.6353 109.833 20.989C110.017 21.3427 110.275 21.6154 110.607 21.8072C110.939 21.999 111.333 22.0949 111.789 22.0949C112.092 22.0949 112.369 22.0522 112.62 21.967C112.872 21.8818 113.087 21.7539 113.266 21.5835C113.445 21.413 113.581 21.2042 113.675 20.9571L116.194 21.1233C116.066 21.7284 115.804 22.2568 115.407 22.7085C115.015 23.1559 114.508 23.5054 113.886 23.7568C113.268 24.0039 112.554 24.1275 111.745 24.1275ZM119.895 23.9358L117.223 14.1176H119.978L121.499 20.7142H121.588L123.174 14.1176H125.877L127.488 20.6758H127.571L129.067 14.1176H131.816L129.15 23.9358H126.267L124.58 17.761H124.458L122.771 23.9358H119.895Z" fill="#3E70E8"/>
</svg>
