<svg width="26" height="32" viewBox="0 0 26 32" fill="none" xmlns="http://www.w3.org/2000/svg">
<g id="fa-solid:running" clip-path="url(#clip0_166_349)">
<path id="Vector" d="M17 6C18.6569 6 20 4.65688 20 3C20 1.34312 18.6569 0 17 0C15.3431 0 14 1.34312 14 3C14 4.65688 15.3431 6 17 6ZM7.10563 19.8419L6.18062 21.9994H2C0.895625 21.9994 0 22.895 0 23.9994C0 25.1038 0.895625 25.9994 2 25.9994H6.84062C8.04375 25.9994 9.12687 25.2844 9.5975 24.1812L10.1469 22.8988L9.48 22.505C8.3975 21.8656 7.60125 20.9194 7.10563 19.8419ZM24 13.9994H21.2481L19.6194 10.6713C18.8381 9.07438 17.4037 7.90688 15.7581 7.4875L11.3156 6.16625C9.54688 5.74125 7.705 6.13188 6.26312 7.2375L3.78375 9.13813C2.90688 9.81 2.74062 11.065 3.41375 11.9419C4.08687 12.8188 5.34125 12.9831 6.2175 12.3119L8.69812 10.4113C9.1775 10.0431 9.78813 9.91125 10.2775 10.0275L11.1962 10.3006L8.855 15.7625C8.06625 17.605 8.77312 19.7631 10.4987 20.7819L15.81 23.9175L14.0931 29.4006C13.7631 30.4544 14.35 31.5763 15.4038 31.9062C15.6031 31.9688 15.8044 31.9988 16.0025 31.9988C16.8531 31.9988 17.6419 31.4506 17.91 30.5956L19.8875 24.2794C20.2569 22.9813 19.7069 21.5869 18.535 20.88L14.7075 18.6213L16.6644 13.7288L17.9312 16.3181C18.4312 17.3394 19.4888 17.9988 20.6256 17.9988H24C25.1044 17.9988 26 17.1031 26 15.9987C26 14.8944 25.1044 13.9994 24 13.9994Z" fill="#63ABFD"/>
</g>
<defs>
<clipPath id="clip0_166_349">
<rect width="26" height="32" fill="white"/>
</clipPath>
</defs>
</svg>
