<svg width="173" height="89" viewBox="0 0 173 89" fill="none" xmlns="http://www.w3.org/2000/svg">
<g id="Group 2281">
<g id="Group 2046">
<path id="Vector 380" d="M3 50.5017C7.54602 47.5443 18.0336 38.7797 23.6157 27.3804C30.5933 13.1312 42.3284 -11.0655 52.4776 10.7116C62.6269 32.4886 70.8731 56.4164 87.6828 58.8361C104.493 61.2558 102.59 40.2853 109.884 40.2853C117.179 40.2853 117.813 79 132.403 79C146.993 79 147.31 10.7116 173 10.7116" stroke="#63ABFD" stroke-width="3"/>
<g id="Group 2045">
<ellipse id="Ellipse 2" cx="2.03473" cy="49.5621" rx="2.03473" ry="1.91407" fill="#63ABFD"/>
<ellipse id="Ellipse 456" cx="19.8399" cy="29.9735" rx="2.03473" ry="1.91407" fill="#63ABFD"/>
<ellipse id="Ellipse 457" cx="39.9429" cy="1.91407" rx="2.03473" ry="1.91407" fill="#63ABFD"/>
<ellipse id="Ellipse 458" cx="59.4717" cy="39.5031" rx="2.03473" ry="1.91407" fill="#63ABFD"/>
<ellipse id="Ellipse 459" cx="79.0001" cy="58.5623" rx="2.03473" ry="1.91407" fill="#63ABFD"/>
<ellipse id="Ellipse 460" cx="99.1031" cy="39.5031" rx="2.03473" ry="1.91407" fill="#63ABFD"/>
<ellipse id="Ellipse 461" cx="118.631" cy="77.6216" rx="2.03473" ry="1.91407" fill="#63ABFD"/>
<ellipse id="Ellipse 462" cx="155.965" cy="10.9143" rx="2.03473" ry="1.91407" fill="#63ABFD"/>
<path id="Vector 380_2" opacity="0.2" d="M20.9795 27.0559C15.2989 38.2993 4.62624 46.944 0 49.861V89H173V10.6151C146.856 10.6151 146.534 77.9695 131.687 77.9695C116.84 77.9695 116.194 39.7843 108.771 39.7843C101.347 39.7843 103.284 60.4679 86.1772 58.0814C69.0709 55.6948 60.6791 32.0943 50.3507 10.6151C40.078 -10.7484 28.2088 12.746 21.0946 26.8281L20.9795 27.0559Z" fill="url(#paint0_linear_166_358)"/>
</g>
</g>
</g>
<defs>
<linearGradient id="paint0_linear_166_358" x1="86.5" y1="2.02271" x2="86.5" y2="89" gradientUnits="userSpaceOnUse">
<stop stop-color="#63ABFD"/>
<stop offset="1" stop-color="#CEE5FF"/>
</linearGradient>
</defs>
</svg>
