<svg width="120" height="24" viewBox="0 0 120 24" fill="none" xmlns="http://www.w3.org/2000/svg">
<path d="M0 14.7594C0 12.9198 0.341588 11.3048 1.02476 9.91444C1.72929 8.52406 2.67933 7.45455 3.87489 6.70588C5.07045 5.95722 6.40478 5.58289 7.87788 5.58289C9.05209 5.58289 10.1195 5.82888 11.0803 6.32085C12.0623 6.81283 12.8309 7.47593 13.386 8.31016V0H18.8621V23.7433H13.386V21.1765C12.8736 22.0321 12.1371 22.7166 11.1763 23.2299C10.237 23.7433 9.13748 24 7.87788 24C6.40478 24 5.07045 23.6257 3.87489 22.877C2.67933 22.107 1.72929 21.0267 1.02476 19.6364C0.341588 18.2246 0 16.5989 0 14.7594ZM13.386 14.7914C13.386 13.4225 13.0017 12.3422 12.2331 11.5508C11.4859 10.7594 10.5679 10.3636 9.47907 10.3636C8.39026 10.3636 7.46157 10.7594 6.69299 11.5508C5.94577 12.3209 5.57216 13.3904 5.57216 14.7594C5.57216 16.1283 5.94577 17.2193 6.69299 18.0321C7.46157 18.8235 8.39026 19.2193 9.47907 19.2193C10.5679 19.2193 11.4859 18.8235 12.2331 18.0321C13.0017 17.2406 13.386 16.1604 13.386 14.7914Z" fill="#3E70E8"/>
<path d="M39.6683 14.5027C39.6683 15.016 39.6363 15.5508 39.5723 16.107H27.179C27.2644 17.2193 27.6167 18.0749 28.2358 18.6738C28.8763 19.2513 29.6555 19.5401 30.5736 19.5401C31.9399 19.5401 32.8899 18.9626 33.4237 17.8075H39.252C38.9531 18.984 38.4087 20.0428 37.6188 20.984C36.8502 21.9251 35.8788 22.6631 34.7046 23.1979C33.5304 23.7326 32.2174 24 30.7657 24C29.0151 24 27.4566 23.6257 26.0902 22.877C24.7239 22.1283 23.6564 21.0588 22.8878 19.6684C22.1192 18.2781 21.735 16.6524 21.735 14.7914C21.735 12.9305 22.1086 11.3048 22.8558 9.91444C23.6244 8.52406 24.6918 7.45455 26.0582 6.70588C27.4245 5.95722 28.9937 5.58289 30.7657 5.58289C32.495 5.58289 34.0321 5.94652 35.3771 6.6738C36.7221 7.40107 37.7683 8.4385 38.5155 9.7861C39.284 11.1337 39.6683 12.7059 39.6683 14.5027ZM34.0642 13.0588C34.0642 12.1176 33.7439 11.369 33.1034 10.8128C32.463 10.2567 31.6624 9.97861 30.7016 9.97861C29.7836 9.97861 29.0044 10.246 28.3639 10.7807C27.7448 11.3155 27.3605 12.0749 27.211 13.0588H34.0642Z" fill="#3E70E8"/>
<path d="M41.6285 12.4492C41.6285 10.2246 42.1089 8.24599 43.0696 6.51337C44.0303 4.75936 45.3647 3.40107 47.0726 2.4385C48.8019 1.45454 50.7554 0.962566 52.933 0.962566C55.6016 0.962566 57.886 1.66845 59.7861 3.08021C61.6862 4.49198 62.9565 6.41711 63.5969 8.85561H57.5764C57.1281 7.91444 56.4876 7.19786 55.655 6.70588C54.8437 6.2139 53.915 5.96791 52.8689 5.96791C51.1823 5.96791 49.816 6.55615 48.7699 7.73262C47.7238 8.90909 47.2007 10.4813 47.2007 12.4492C47.2007 14.4171 47.7238 15.9893 48.7699 17.1658C49.816 18.3422 51.1823 18.9305 52.8689 18.9305C53.915 18.9305 54.8437 18.6845 55.655 18.1925C56.4876 17.7005 57.1281 16.984 57.5764 16.0428H63.5969C62.9565 18.4813 61.6862 20.4064 59.7861 21.8182C57.886 23.2086 55.6016 23.9037 52.933 23.9037C50.7554 23.9037 48.8019 23.4225 47.0726 22.4599C45.3647 21.4759 44.0303 20.1176 43.0696 18.385C42.1089 16.6524 41.6285 14.6738 41.6285 12.4492Z" fill="#3E70E8"/>
<path d="M84.5956 5.83957V23.7433H79.1195V21.3048C78.5644 22.0963 77.8065 22.738 76.8458 23.2299C75.9064 23.7005 74.8603 23.9358 73.7075 23.9358C72.3411 23.9358 71.1349 23.6364 70.0888 23.0374C69.0427 22.4171 68.2314 21.5294 67.655 20.3743C67.0785 19.2193 66.7903 17.861 66.7903 16.2995V5.83957H72.2344V15.5615C72.2344 16.7594 72.5439 17.6898 73.1631 18.3529C73.7822 19.016 74.6148 19.3476 75.6609 19.3476C76.7284 19.3476 77.5717 19.016 78.1908 18.3529C78.81 17.6898 79.1195 16.7594 79.1195 15.5615V5.83957H84.5956Z" fill="#3E70E8"/>
<path d="M94.0051 8.82353C94.6456 7.83957 95.4462 7.06952 96.4069 6.51337C97.3676 5.93583 98.4351 5.64706 99.6093 5.64706V11.4545H98.1042C96.7378 11.4545 95.7131 11.754 95.0299 12.3529C94.3467 12.9305 94.0051 13.9572 94.0051 15.4332V23.7433H88.529V5.83957H94.0051V8.82353Z" fill="#3E70E8"/>
<path d="M101.138 14.7594C101.138 12.9198 101.48 11.3048 102.163 9.91444C102.867 8.52406 103.817 7.45455 105.013 6.70588C106.208 5.95722 107.543 5.58289 109.016 5.58289C110.275 5.58289 111.375 5.83957 112.314 6.35294C113.275 6.86631 114.012 7.54011 114.524 8.37433V5.83957H120V23.7433H114.524V21.2086C113.99 22.0428 113.243 22.7166 112.282 23.2299C111.343 23.7433 110.243 24 108.984 24C107.532 24 106.208 23.6257 105.013 22.877C103.817 22.107 102.867 21.0267 102.163 19.6364C101.48 18.2246 101.138 16.5989 101.138 14.7594ZM114.524 14.7914C114.524 13.4225 114.14 12.3422 113.371 11.5508C112.624 10.7594 111.706 10.3636 110.617 10.3636C109.528 10.3636 108.6 10.7594 107.831 11.5508C107.084 12.3209 106.71 13.3904 106.71 14.7594C106.71 16.1283 107.084 17.2193 107.831 18.0321C108.6 18.8235 109.528 19.2193 110.617 19.2193C111.706 19.2193 112.624 18.8235 113.371 18.0321C114.14 17.2406 114.524 16.1604 114.524 14.7914Z" fill="#3E70E8"/>
</svg>
