<svg width="32" height="32" viewBox="0 0 32 32" fill="none" xmlns="http://www.w3.org/2000/svg">
<path d="M27.9572 24.5973C27.9443 25.0575 27.839 25.5104 27.6476 25.9292C27.4562 26.3479 27.1827 26.7239 26.8431 27.0348C26.5036 27.3457 26.105 27.5853 25.6711 27.7391C25.2372 27.893 24.7768 27.9582 24.3172 27.9306C21.4466 27.9466 18.5759 27.9306 15.7052 27.9306C15.5284 27.9306 15.3589 27.8604 15.2338 27.7354C15.1088 27.6104 15.0386 27.4408 15.0386 27.264C15.0386 27.0872 15.1088 26.9176 15.2338 26.7926C15.3589 26.6675 15.5284 26.5973 15.7052 26.5973C18.6386 26.5973 21.5719 26.64 24.5052 26.5973C25.9812 26.576 26.6239 25.4666 26.6239 24.1466V7.52931C26.6342 7.10966 26.5161 6.69688 26.2855 6.34615C26.0548 5.99541 25.7226 5.72346 25.3332 5.56665C24.8729 5.44102 24.3939 5.39813 23.9186 5.43998H15.7052C15.5284 5.43998 15.3589 5.36974 15.2338 5.24472C15.1088 5.11969 15.0386 4.95012 15.0386 4.77331C15.0386 4.5965 15.1088 4.42693 15.2338 4.30191C15.3589 4.17688 15.5284 4.10664 15.7052 4.10664C18.6706 4.10664 21.6586 3.99331 24.6212 4.10664C25.0749 4.11812 25.5218 4.21971 25.9359 4.4055C26.35 4.5913 26.7229 4.85759 27.0331 5.18887C27.3433 5.52016 27.5845 5.90983 27.7427 6.33521C27.9009 6.76058 27.9729 7.21318 27.9546 7.66664L27.9572 24.5973Z" fill="#707070"/>
<path d="M4.23486 15.5507C4.12221 15.6599 4.05627 15.8085 4.05086 15.9654C4.05086 15.9854 4.05086 16.0027 4.04286 16.0227C4.03486 16.0427 4.04286 16.0587 4.05086 16.0774C4.0562 16.2346 4.12213 16.3836 4.23486 16.4934L9.12686 21.3854C9.2526 21.5068 9.421 21.574 9.5958 21.5725C9.7706 21.571 9.93781 21.5008 10.0614 21.3772C10.185 21.2536 10.2551 21.0864 10.2566 20.9116C10.2582 20.7368 10.191 20.5684 10.0695 20.4427L6.3162 16.688H20.6389C20.8157 16.688 20.9852 16.6178 21.1103 16.4928C21.2353 16.3677 21.3055 16.1982 21.3055 16.0214C21.3055 15.8445 21.2353 15.675 21.1103 15.55C20.9852 15.4249 20.8157 15.3547 20.6389 15.3547H6.3162L10.0695 11.6C10.191 11.4743 10.2582 11.3059 10.2566 11.1311C10.2551 10.9563 10.185 10.7891 10.0614 10.6655C9.93781 10.5419 9.7706 10.4718 9.5958 10.4702C9.421 10.4687 9.2526 10.5359 9.12686 10.6574L4.23486 15.5507Z" fill="black"/>
</svg>
