<svg width="32" height="32" viewBox="0 0 32 32" fill="none" xmlns="http://www.w3.org/2000/svg">
<g id="mdi:sugar">
<path id="Vector" d="M28 22C28 22.5067 27.72 22.9467 27.2933 23.1733L16.76 29.0933C16.5467 29.2533 16.28 29.3333 16 29.3333C15.72 29.3333 15.4533 29.2533 15.24 29.0933L4.70667 23.1733C4.49291 23.061 4.31402 22.8922 4.18944 22.6854C4.06485 22.4785 3.99933 22.2415 4.00001 22V9.99999C4.00001 9.49332 4.28001 9.05332 4.70667 8.82666L15.24 2.90666C15.4533 2.74666 15.72 2.66666 16 2.66666C16.28 2.66666 16.5467 2.74666 16.76 2.90666L27.2933 8.82666C27.72 9.05332 28 9.49332 28 9.99999V22ZM16 5.53332L8.05334 9.99999L16 14.4667L23.9467 9.99999L16 5.53332ZM6.66667 21.2133L14.6667 25.72V16.7733L6.66667 12.28V21.2133ZM25.3333 21.2133V12.28L17.3333 16.7733V25.72L25.3333 21.2133Z" fill="#E697FF"/>
</g>
</svg>
