<svg width="32" height="33" viewBox="0 0 32 33" fill="none" xmlns="http://www.w3.org/2000/svg">
<path d="M5 14.9358C4.73478 14.9358 4.48043 14.8304 4.29289 14.6429C4.10536 14.4553 4 14.201 4 13.9358V5.93776C4 5.67254 4.10536 5.41819 4.29289 5.23065C4.48043 5.04312 4.73478 4.93776 5 4.93776H13C13.2652 4.93776 13.5196 5.04312 13.7071 5.23065C13.8946 5.41819 14 5.67254 14 5.93776V13.9358C14 14.201 13.8946 14.4553 13.7071 14.6429C13.5196 14.8304 13.2652 14.9358 13 14.9358H5ZM19 14.9358C18.7348 14.9358 18.4804 14.8304 18.2929 14.6429C18.1054 14.4553 18 14.201 18 13.9358V5.93776C18 5.67254 18.1054 5.41819 18.2929 5.23065C18.4804 5.04312 18.7348 4.93776 19 4.93776H26.998C27.2632 4.93776 27.5176 5.04312 27.7051 5.23065C27.8926 5.41819 27.998 5.67254 27.998 5.93776V13.9358C27.998 14.201 27.8926 14.4553 27.7051 14.6429C27.5176 14.8304 27.2632 14.9358 26.998 14.9358H19ZM5 28.9358C4.73478 28.9358 4.48043 28.8304 4.29289 28.6429C4.10536 28.4553 4 28.201 4 27.9358V19.9358C4 19.6705 4.10536 19.4162 4.29289 19.2287C4.48043 19.0411 4.73478 18.9358 5 18.9358H13C13.2652 18.9358 13.5196 19.0411 13.7071 19.2287C13.8946 19.4162 14 19.6705 14 19.9358V27.9358C14 28.201 13.8946 28.4553 13.7071 28.6429C13.5196 28.8304 13.2652 28.9358 13 28.9358H5ZM19 28.9358C18.7348 28.9358 18.4804 28.8304 18.2929 28.6429C18.1054 28.4553 18 28.201 18 27.9358V19.9358C18 19.6705 18.1054 19.4162 18.2929 19.2287C18.4804 19.0411 18.7348 18.9358 19 18.9358H26.998C27.2632 18.9358 27.5176 19.0411 27.7051 19.2287C27.8926 19.4162 27.998 19.6705 27.998 19.9358V27.9358C27.998 28.201 27.8926 28.4553 27.7051 28.6429C27.5176 28.8304 27.2632 28.9358 26.998 28.9358H19Z" fill="#3E70E8"/>
</svg>
