<svg width="126" height="33" viewBox="0 0 126 33" fill="none" xmlns="http://www.w3.org/2000/svg">
<path d="M2.66651 12.9278C2.6658 11.8774 2.87231 10.8371 3.27419 9.86667C3.67608 8.8962 4.26546 8.01454 5.00857 7.27217C5.75168 6.52979 6.63394 5.9413 7.60481 5.54039C8.57569 5.13947 9.61611 4.93401 10.6665 4.93576H21.3332C25.7505 4.93576 29.3332 8.52909 29.3332 12.9278V28.9358H10.6665C6.24917 28.9358 2.66651 25.3424 2.66651 20.9438V12.9278ZM26.6665 26.2691V12.9278C26.663 11.5151 26.0997 10.1614 25.1 9.16325C24.1004 8.16509 22.7458 7.60383 21.3332 7.60243H10.6665C9.9663 7.60067 9.27264 7.73716 8.6253 8.00406C7.97796 8.27096 7.38968 8.66303 6.89419 9.15778C6.3987 9.65253 6.00575 10.2402 5.73787 10.8872C5.47 11.5341 5.33247 12.2276 5.33317 12.9278V20.9438C5.3367 22.3564 5.89999 23.7101 6.89965 24.7083C7.89931 25.7064 9.25383 26.2677 10.6665 26.2691H26.6665ZM18.6665 15.6024H21.3332V18.2691H18.6665V15.6024ZM10.6665 15.6024H13.3332V18.2691H10.6665V15.6024Z" fill="#707070"/>
<path d="M49.4382 10.8449H51.8352L56.0028 21.021H56.1562L60.3239 10.8449H62.7209V23.9358H60.8416V14.4627H60.7202L56.8594 23.9166H55.2997L51.4389 14.4564H51.3175V23.9358H49.4382V10.8449ZM69.6706 24.1339C68.7033 24.1339 67.8702 23.9272 67.1713 23.5139C66.4767 23.0963 65.9398 22.5103 65.5605 21.7561C65.1855 20.9976 64.998 20.1091 64.998 19.0906C64.998 18.0849 65.1855 17.1985 65.5605 16.4315C65.9398 15.6645 66.4682 15.0657 67.1458 14.6353C67.8276 14.2049 68.6245 13.9897 69.5364 13.9897C70.0904 13.9897 70.6273 14.0814 71.1472 14.2646C71.6671 14.4478 72.1337 14.7355 72.5471 15.1275C72.9604 15.5196 73.2864 16.0288 73.525 16.6552C73.7637 17.2774 73.883 18.0338 73.883 18.9244V19.602H66.0783V18.1701H72.0101C72.0101 17.6673 71.9078 17.222 71.7033 16.8342C71.4988 16.4422 71.2111 16.1332 70.8404 15.9074C70.4739 15.6815 70.0435 15.5686 69.5492 15.5686C69.0123 15.5686 68.5435 15.7007 68.1429 15.9649C67.7466 16.2248 67.4398 16.5657 67.2225 16.9876C67.0094 17.4052 66.9029 17.8591 66.9029 18.3491V19.4677C66.9029 20.124 67.0179 20.6822 67.248 21.1424C67.4824 21.6027 67.8084 21.9542 68.226 22.1971C68.6436 22.4358 69.1316 22.5551 69.6898 22.5551C70.052 22.5551 70.3823 22.5039 70.6806 22.4017C70.9789 22.2951 71.2367 22.1375 71.454 21.9287C71.6713 21.7199 71.8375 21.462 71.9526 21.1552L73.7615 21.4812C73.6167 22.0139 73.3567 22.4805 72.9817 22.8811C72.611 23.2774 72.1444 23.5863 71.5819 23.8079C71.0236 24.0252 70.3865 24.1339 69.6706 24.1339ZM83.3608 16.5146L81.6286 16.8214C81.5561 16.5998 81.4411 16.3889 81.2834 16.1886C81.13 15.9883 80.9212 15.8243 80.657 15.6964C80.3928 15.5686 80.0625 15.5047 79.6662 15.5047C79.125 15.5047 78.6733 15.6261 78.3111 15.869C77.9489 16.1076 77.7678 16.4166 77.7678 16.7958C77.7678 17.124 77.8892 17.3882 78.1321 17.5885C78.375 17.7887 78.767 17.9528 79.3082 18.0806L80.8679 18.4386C81.7713 18.6474 82.4446 18.9691 82.8878 19.4038C83.331 19.8385 83.5526 20.4031 83.5526 21.0977C83.5526 21.6858 83.3821 22.2099 83.0412 22.6701C82.7045 23.1261 82.2337 23.4841 81.6286 23.744C81.0277 24.0039 80.331 24.1339 79.5384 24.1339C78.4389 24.1339 77.5419 23.8995 76.8473 23.4308C76.1527 22.9578 75.7266 22.2866 75.5689 21.4173L77.4162 21.136C77.5313 21.6176 77.7678 21.9819 78.1257 22.2291C78.4837 22.472 78.9503 22.5934 79.5256 22.5934C80.152 22.5934 80.6527 22.4635 81.0277 22.2035C81.4027 21.9393 81.5902 21.6176 81.5902 21.2383C81.5902 20.9315 81.4751 20.6737 81.245 20.4649C81.0192 20.2561 80.6719 20.0984 80.2031 19.9919L78.5412 19.6275C77.625 19.4187 76.9474 19.0863 76.5085 18.6304C76.0739 18.1744 75.8565 17.597 75.8565 16.8981C75.8565 16.3186 76.0185 15.8115 76.3423 15.3768C76.6662 14.9422 77.1136 14.6034 77.6847 14.3605C78.2557 14.1133 78.9098 13.9897 79.647 13.9897C80.7081 13.9897 81.5433 14.2199 82.1527 14.6801C82.7621 15.136 83.1648 15.7476 83.3608 16.5146ZM93.0112 16.5146L91.2789 16.8214C91.2065 16.5998 91.0914 16.3889 90.9338 16.1886C90.7804 15.9883 90.5716 15.8243 90.3074 15.6964C90.0431 15.5686 89.7129 15.5047 89.3166 15.5047C88.7754 15.5047 88.3237 15.6261 87.9615 15.869C87.5993 16.1076 87.4181 16.4166 87.4181 16.7958C87.4181 17.124 87.5396 17.3882 87.7825 17.5885C88.0254 17.7887 88.4174 17.9528 88.9586 18.0806L90.5183 18.4386C91.4217 18.6474 92.095 18.9691 92.5382 19.4038C92.9814 19.8385 93.2029 20.4031 93.2029 21.0977C93.2029 21.6858 93.0325 22.2099 92.6916 22.6701C92.3549 23.1261 91.8841 23.4841 91.2789 23.744C90.6781 24.0039 89.9814 24.1339 89.1887 24.1339C88.0893 24.1339 87.1923 23.8995 86.4977 23.4308C85.8031 22.9578 85.377 22.2866 85.2193 21.4173L87.0666 21.136C87.1816 21.6176 87.4181 21.9819 87.7761 22.2291C88.1341 22.472 88.6007 22.5934 89.176 22.5934C89.8024 22.5934 90.3031 22.4635 90.6781 22.2035C91.0531 21.9393 91.2406 21.6176 91.2406 21.2383C91.2406 20.9315 91.1255 20.6737 90.8954 20.4649C90.6696 20.2561 90.3223 20.0984 89.8535 19.9919L88.1916 19.6275C87.2754 19.4187 86.5978 19.0863 86.1589 18.6304C85.7243 18.1744 85.5069 17.597 85.5069 16.8981C85.5069 16.3186 85.6689 15.8115 85.9927 15.3768C86.3166 14.9422 86.764 14.6034 87.335 14.3605C87.9061 14.1133 88.5602 13.9897 89.2974 13.9897C90.3585 13.9897 91.1937 14.2199 91.8031 14.6801C92.4125 15.136 92.8152 15.7476 93.0112 16.5146ZM98.1616 24.1531C97.5394 24.1531 96.9769 24.038 96.4741 23.8079C95.9712 23.5735 95.5728 23.2348 95.2788 22.7916C94.989 22.3484 94.8441 21.8051 94.8441 21.1616C94.8441 20.6076 94.9506 20.1517 95.1637 19.7937C95.3768 19.4358 95.6644 19.1524 96.0266 18.9436C96.3888 18.7348 96.7937 18.5771 97.2411 18.4706C97.6886 18.364 98.1445 18.2831 98.609 18.2277C99.1971 18.1595 99.6744 18.1041 100.041 18.0615C100.407 18.0146 100.674 17.94 100.84 17.8377C101.006 17.7355 101.089 17.5693 101.089 17.3392V17.2944C101.089 16.7362 100.931 16.3037 100.616 15.9968C100.305 15.69 99.8406 15.5366 99.2227 15.5366C98.5792 15.5366 98.0721 15.6794 97.7013 15.9649C97.3349 16.2461 97.0813 16.5593 96.9407 16.9045L95.1445 16.4954C95.3576 15.8988 95.6687 15.4173 96.0778 15.0508C96.4911 14.6801 96.9663 14.4116 97.5032 14.2454C98.0401 14.075 98.6048 13.9897 99.1971 13.9897C99.5891 13.9897 100.005 14.0366 100.444 14.1304C100.887 14.2199 101.3 14.386 101.684 14.6289C102.071 14.8718 102.389 15.2191 102.636 15.6708C102.883 16.1183 103.007 16.7 103.007 17.4159V23.9358H101.14V22.5934H101.064C100.94 22.8406 100.755 23.0835 100.507 23.3221C100.26 23.5608 99.9428 23.7589 99.555 23.9166C99.1673 24.0743 98.7028 24.1531 98.1616 24.1531ZM98.5771 22.619C99.1055 22.619 99.5572 22.5146 99.9322 22.3058C100.311 22.097 100.599 21.8243 100.795 21.4876C100.995 21.1467 101.096 20.7824 101.096 20.3946V19.1289C101.027 19.1971 100.895 19.261 100.699 19.3207C100.507 19.3761 100.288 19.4251 100.041 19.4677C99.7937 19.5061 99.5529 19.5423 99.3185 19.5764C99.0842 19.6062 98.8881 19.6318 98.7305 19.6531C98.3597 19.7 98.021 19.7788 97.7141 19.8896C97.4116 20.0004 97.1687 20.1602 96.9854 20.369C96.8065 20.5735 96.717 20.8463 96.717 21.1872C96.717 21.6602 96.8917 22.0181 97.2411 22.261C97.5906 22.4997 98.0359 22.619 98.5771 22.619ZM109.669 27.8221C108.889 27.8221 108.218 27.7199 107.655 27.5153C107.097 27.3108 106.641 27.0402 106.287 26.7035C105.934 26.3669 105.67 25.9983 105.495 25.5977L107.138 24.9201C107.253 25.1076 107.406 25.3058 107.598 25.5146C107.794 25.7277 108.058 25.9088 108.39 26.0579C108.727 26.2071 109.16 26.2816 109.688 26.2816C110.412 26.2816 111.011 26.1048 111.484 25.7511C111.957 25.4017 112.194 24.8434 112.194 24.0764V22.146H112.072C111.957 22.3548 111.791 22.587 111.574 22.8427C111.361 23.0984 111.067 23.32 110.692 23.5075C110.317 23.695 109.829 23.7887 109.228 23.7887C108.452 23.7887 107.753 23.6076 107.131 23.2454C106.513 22.8789 106.023 22.3399 105.661 21.6282C105.303 20.9123 105.124 20.0324 105.124 18.9883C105.124 17.9443 105.301 17.0494 105.655 16.3037C106.013 15.5579 106.503 14.9869 107.125 14.5906C107.747 14.19 108.452 13.9897 109.241 13.9897C109.85 13.9897 110.342 14.092 110.717 14.2966C111.092 14.4968 111.384 14.7312 111.593 14.9997C111.806 15.2681 111.97 15.5047 112.085 15.7092H112.226V14.1176H114.099V24.1531C114.099 24.9968 113.903 25.6893 113.51 26.2305C113.118 26.7717 112.588 27.1723 111.919 27.4322C111.254 27.6922 110.504 27.8221 109.669 27.8221ZM109.65 22.2035C110.199 22.2035 110.664 22.0757 111.043 21.82C111.427 21.5601 111.716 21.1893 111.912 20.7078C112.113 20.222 112.213 19.6403 112.213 18.9627C112.213 18.3022 112.115 17.7206 111.919 17.2177C111.723 16.7149 111.435 16.3228 111.056 16.0416C110.677 15.7561 110.208 15.6133 109.65 15.6133C109.074 15.6133 108.595 15.7625 108.211 16.0608C107.828 16.3548 107.538 16.7554 107.342 17.2625C107.15 17.7696 107.055 18.3363 107.055 18.9627C107.055 19.6062 107.153 20.1708 107.349 20.6566C107.545 21.1424 107.834 21.5217 108.218 21.7944C108.606 22.0672 109.083 22.2035 109.65 22.2035ZM120.893 24.1339C119.926 24.1339 119.093 23.9272 118.394 23.5139C117.699 23.0963 117.162 22.5103 116.783 21.7561C116.408 20.9976 116.221 20.1091 116.221 19.0906C116.221 18.0849 116.408 17.1985 116.783 16.4315C117.162 15.6645 117.691 15.0657 118.368 14.6353C119.05 14.2049 119.847 13.9897 120.759 13.9897C121.313 13.9897 121.85 14.0814 122.37 14.2646C122.89 14.4478 123.356 14.7355 123.77 15.1275C124.183 15.5196 124.509 16.0288 124.748 16.6552C124.986 17.2774 125.106 18.0338 125.106 18.9244V19.602H117.301V18.1701H123.233C123.233 17.6673 123.131 17.222 122.926 16.8342C122.721 16.4422 122.434 16.1332 122.063 15.9074C121.697 15.6815 121.266 15.5686 120.772 15.5686C120.235 15.5686 119.766 15.7007 119.366 15.9649C118.969 16.2248 118.662 16.5657 118.445 16.9876C118.232 17.4052 118.126 17.8591 118.126 18.3491V19.4677C118.126 20.124 118.241 20.6822 118.471 21.1424C118.705 21.6027 119.031 21.9542 119.449 22.1971C119.866 22.4358 120.354 22.5551 120.912 22.5551C121.275 22.5551 121.605 22.5039 121.903 22.4017C122.202 22.2951 122.459 22.1375 122.677 21.9287C122.894 21.7199 123.06 21.462 123.175 21.1552L124.984 21.4812C124.839 22.0139 124.579 22.4805 124.204 22.8811C123.834 23.2774 123.367 23.5863 122.805 23.8079C122.246 24.0252 121.609 24.1339 120.893 24.1339Z" fill="#707070"/>
</svg>
