<svg width="32" height="33" viewBox="0 0 32 33" fill="none" xmlns="http://www.w3.org/2000/svg">
<path d="M2.66651 12.9278C2.6658 11.8774 2.87231 10.8371 3.27419 9.86667C3.67608 8.8962 4.26546 8.01454 5.00857 7.27217C5.75168 6.52979 6.63394 5.9413 7.60481 5.54039C8.57569 5.13947 9.61611 4.93401 10.6665 4.93576H21.3332C25.7505 4.93576 29.3332 8.52909 29.3332 12.9278V28.9358H10.6665C6.24917 28.9358 2.66651 25.3424 2.66651 20.9438V12.9278ZM26.6665 26.2691V12.9278C26.663 11.5151 26.0997 10.1614 25.1 9.16325C24.1004 8.16509 22.7458 7.60383 21.3332 7.60243H10.6665C9.9663 7.60067 9.27264 7.73716 8.6253 8.00406C7.97796 8.27096 7.38968 8.66303 6.89419 9.15778C6.3987 9.65253 6.00575 10.2402 5.73787 10.8872C5.47 11.5341 5.33247 12.2276 5.33317 12.9278V20.9438C5.3367 22.3564 5.89999 23.7101 6.89965 24.7083C7.89931 25.7064 9.25383 26.2677 10.6665 26.2691H26.6665ZM18.6665 15.6024H21.3332V18.2691H18.6665V15.6024ZM10.6665 15.6024H13.3332V18.2691H10.6665V15.6024Z" fill="#707070"/>
</svg>
