<svg width="32" height="33" viewBox="0 0 32 33" fill="none" xmlns="http://www.w3.org/2000/svg">
<path d="M12.3334 30.2691L11.8001 26.0024C11.5112 25.8913 11.2392 25.758 10.9841 25.6024C10.729 25.4469 10.4788 25.2802 10.2334 25.1024L6.26676 26.7691L2.6001 20.4358L6.03343 17.8358C6.01121 17.6802 6.0001 17.5304 6.0001 17.3864V16.4864C6.0001 16.3415 6.01121 16.1913 6.03343 16.0358L2.6001 13.4358L6.26676 7.10242L10.2334 8.76909C10.4779 8.59131 10.7334 8.42465 11.0001 8.26909C11.2668 8.11354 11.5334 7.9802 11.8001 7.86909L12.3334 3.60242H19.6668L20.2001 7.86909C20.489 7.9802 20.7614 8.11354 21.0174 8.26909C21.2734 8.42465 21.5232 8.59131 21.7668 8.76909L25.7334 7.10242L29.4001 13.4358L25.9668 16.0358C25.989 16.1913 26.0001 16.3415 26.0001 16.4864V17.3851C26.0001 17.53 25.9779 17.6802 25.9334 17.8358L29.3668 20.4358L25.7001 26.7691L21.7668 25.1024C21.5223 25.2802 21.2668 25.4469 21.0001 25.6024C20.7334 25.758 20.4668 25.8913 20.2001 26.0024L19.6668 30.2691H12.3334ZM16.0668 21.6024C17.3557 21.6024 18.4557 21.1469 19.3668 20.2358C20.2779 19.3246 20.7334 18.2246 20.7334 16.9358C20.7334 15.6469 20.2779 14.5469 19.3668 13.6358C18.4557 12.7246 17.3557 12.2691 16.0668 12.2691C14.7557 12.2691 13.6499 12.7246 12.7494 13.6358C11.849 14.5469 11.3992 15.6469 11.4001 16.9358C11.4001 18.2246 11.8503 19.3246 12.7508 20.2358C13.6512 21.1469 14.7565 21.6024 16.0668 21.6024Z" fill="#707070"/>
</svg>
