<svg width="814" height="438" viewBox="0 0 814 438" fill="none" xmlns="http://www.w3.org/2000/svg">
<g filter="url(#filter0_d_114_1860)">
<rect x="50" y="49" width="713.616" height="338" rx="6" fill="white"/>
</g>
<path d="M77.1681 77.04V79.3H73.4481V91H70.6481V79.3H66.9281V77.04H77.1681ZM83.3811 91.18C82.3144 91.18 81.3544 90.9467 80.5011 90.48C79.6477 90 78.9744 89.3267 78.4811 88.46C78.0011 87.5933 77.7611 86.5933 77.7611 85.46C77.7611 84.3267 78.0077 83.3267 78.5011 82.46C79.0077 81.5933 79.6944 80.9267 80.5611 80.46C81.4277 79.98 82.3944 79.74 83.4611 79.74C84.5277 79.74 85.4944 79.98 86.3611 80.46C87.2277 80.9267 87.9077 81.5933 88.4011 82.46C88.9077 83.3267 89.1611 84.3267 89.1611 85.46C89.1611 86.5933 88.9011 87.5933 88.3811 88.46C87.8744 89.3267 87.1811 90 86.3011 90.48C85.4344 90.9467 84.4611 91.18 83.3811 91.18ZM83.3811 88.74C83.8877 88.74 84.3611 88.62 84.8011 88.38C85.2544 88.1267 85.6144 87.7533 85.8811 87.26C86.1477 86.7667 86.2811 86.1667 86.2811 85.46C86.2811 84.4067 86.0011 83.6 85.4411 83.04C84.8944 82.4667 84.2211 82.18 83.4211 82.18C82.6211 82.18 81.9477 82.4667 81.4011 83.04C80.8677 83.6 80.6011 84.4067 80.6011 85.46C80.6011 86.5133 80.8611 87.3267 81.3811 87.9C81.9144 88.46 82.5811 88.74 83.3811 88.74ZM89.745 85.42C89.745 84.3 89.965 83.3067 90.405 82.44C90.8583 81.5733 91.4716 80.9067 92.245 80.44C93.0183 79.9733 93.8783 79.74 94.825 79.74C95.545 79.74 96.2316 79.9 96.885 80.22C97.5383 80.5267 98.0583 80.94 98.445 81.46V76.2H101.285V91H98.445V89.36C98.0983 89.9067 97.6116 90.3467 96.985 90.68C96.3583 91.0133 95.6316 91.18 94.805 91.18C93.8716 91.18 93.0183 90.94 92.245 90.46C91.4716 89.98 90.8583 89.3067 90.405 88.44C89.965 87.56 89.745 86.5533 89.745 85.42ZM98.465 85.46C98.465 84.78 98.3316 84.2 98.065 83.72C97.7983 83.2267 97.4383 82.8533 96.985 82.6C96.5316 82.3333 96.045 82.2 95.525 82.2C95.005 82.2 94.525 82.3267 94.085 82.58C93.645 82.8333 93.285 83.2067 93.005 83.7C92.7383 84.18 92.605 84.7533 92.605 85.42C92.605 86.0867 92.7383 86.6733 93.005 87.18C93.285 87.6733 93.645 88.0533 94.085 88.32C94.5383 88.5867 95.0183 88.72 95.525 88.72C96.045 88.72 96.5316 88.5933 96.985 88.34C97.4383 88.0733 97.7983 87.7 98.065 87.22C98.3316 86.7267 98.465 86.14 98.465 85.46ZM102.55 85.42C102.55 84.3 102.77 83.3067 103.21 82.44C103.663 81.5733 104.27 80.9067 105.03 80.44C105.803 79.9733 106.663 79.74 107.61 79.74C108.436 79.74 109.156 79.9067 109.77 80.24C110.396 80.5733 110.896 80.9933 111.27 81.5V79.92H114.09V91H111.27V89.38C110.91 89.9 110.41 90.3333 109.77 90.68C109.143 91.0133 108.416 91.18 107.59 91.18C106.656 91.18 105.803 90.94 105.03 90.46C104.27 89.98 103.663 89.3067 103.21 88.44C102.77 87.56 102.55 86.5533 102.55 85.42ZM111.27 85.46C111.27 84.78 111.136 84.2 110.87 83.72C110.603 83.2267 110.243 82.8533 109.79 82.6C109.336 82.3333 108.85 82.2 108.33 82.2C107.81 82.2 107.33 82.3267 106.89 82.58C106.45 82.8333 106.09 83.2067 105.81 83.7C105.543 84.18 105.41 84.7533 105.41 85.42C105.41 86.0867 105.543 86.6733 105.81 87.18C106.09 87.6733 106.45 88.0533 106.89 88.32C107.343 88.5867 107.823 88.72 108.33 88.72C108.85 88.72 109.336 88.5933 109.79 88.34C110.243 88.0733 110.603 87.7 110.87 87.22C111.136 86.7267 111.27 86.14 111.27 85.46ZM126.674 79.92L119.814 96.24H116.834L119.234 90.72L114.794 79.92H117.934L120.794 87.66L123.694 79.92H126.674ZM127.994 77.04H130.934L128.774 82.08H126.854L127.994 77.04ZM136.432 91.18C135.525 91.18 134.712 91.02 133.992 90.7C133.272 90.3667 132.698 89.92 132.272 89.36C131.858 88.8 131.632 88.18 131.592 87.5H134.412C134.465 87.9267 134.672 88.28 135.032 88.56C135.405 88.84 135.865 88.98 136.412 88.98C136.945 88.98 137.358 88.8733 137.652 88.66C137.958 88.4467 138.112 88.1733 138.112 87.84C138.112 87.48 137.925 87.2133 137.552 87.04C137.192 86.8533 136.612 86.6533 135.812 86.44C134.985 86.24 134.305 86.0333 133.772 85.82C133.252 85.6067 132.798 85.28 132.412 84.84C132.038 84.4 131.852 83.8067 131.852 83.06C131.852 82.4467 132.025 81.8867 132.372 81.38C132.732 80.8733 133.238 80.4733 133.892 80.18C134.558 79.8867 135.338 79.74 136.232 79.74C137.552 79.74 138.605 80.0733 139.392 80.74C140.178 81.3933 140.612 82.28 140.692 83.4H138.012C137.972 82.96 137.785 82.6133 137.452 82.36C137.132 82.0933 136.698 81.96 136.152 81.96C135.645 81.96 135.252 82.0533 134.972 82.24C134.705 82.4267 134.572 82.6867 134.572 83.02C134.572 83.3933 134.758 83.68 135.132 83.88C135.505 84.0667 136.085 84.26 136.872 84.46C137.672 84.66 138.332 84.8667 138.852 85.08C139.372 85.2933 139.818 85.6267 140.192 86.08C140.578 86.52 140.778 87.1067 140.792 87.84C140.792 88.48 140.612 89.0533 140.252 89.56C139.905 90.0667 139.398 90.4667 138.732 90.76C138.078 91.04 137.312 91.18 136.432 91.18ZM153.556 91L150.476 85.56H149.156V91H146.356V77.04H151.596C152.676 77.04 153.596 77.2333 154.356 77.62C155.116 77.9933 155.682 78.5067 156.056 79.16C156.442 79.8 156.636 80.52 156.636 81.32C156.636 82.24 156.369 83.0733 155.836 83.82C155.302 84.5533 154.509 85.06 153.456 85.34L156.796 91H153.556ZM149.156 83.46H151.496C152.256 83.46 152.822 83.28 153.196 82.92C153.569 82.5467 153.756 82.0333 153.756 81.38C153.756 80.74 153.569 80.2467 153.196 79.9C152.822 79.54 152.256 79.36 151.496 79.36H149.156V83.46ZM168.718 85.22C168.718 85.62 168.691 85.98 168.638 86.3H160.538C160.605 87.1 160.885 87.7267 161.378 88.18C161.871 88.6333 162.478 88.86 163.198 88.86C164.238 88.86 164.978 88.4133 165.418 87.52H168.438C168.118 88.5867 167.505 89.4667 166.598 90.16C165.691 90.84 164.578 91.18 163.258 91.18C162.191 91.18 161.231 90.9467 160.378 90.48C159.538 90 158.878 89.3267 158.398 88.46C157.931 87.5933 157.698 86.5933 157.698 85.46C157.698 84.3133 157.931 83.3067 158.398 82.44C158.865 81.5733 159.518 80.9067 160.358 80.44C161.198 79.9733 162.165 79.74 163.258 79.74C164.311 79.74 165.251 79.9667 166.078 80.42C166.918 80.8733 167.565 81.52 168.018 82.36C168.485 83.1867 168.718 84.14 168.718 85.22ZM165.818 84.42C165.805 83.7 165.545 83.1267 165.038 82.7C164.531 82.26 163.911 82.04 163.178 82.04C162.485 82.04 161.898 82.2533 161.418 82.68C160.951 83.0933 160.665 83.6733 160.558 84.42H165.818ZM172.812 81.52C173.172 81.0133 173.665 80.5933 174.292 80.26C174.932 79.9133 175.659 79.74 176.472 79.74C177.419 79.74 178.272 79.9733 179.032 80.44C179.805 80.9067 180.412 81.5733 180.852 82.44C181.305 83.2933 181.532 84.2867 181.532 85.42C181.532 86.5533 181.305 87.56 180.852 88.44C180.412 89.3067 179.805 89.98 179.032 90.46C178.272 90.94 177.419 91.18 176.472 91.18C175.659 91.18 174.939 91.0133 174.312 90.68C173.699 90.3467 173.199 89.9267 172.812 89.42V96.28H170.012V79.92H172.812V81.52ZM178.672 85.42C178.672 84.7533 178.532 84.18 178.252 83.7C177.985 83.2067 177.625 82.8333 177.172 82.58C176.732 82.3267 176.252 82.2 175.732 82.2C175.225 82.2 174.745 82.3333 174.292 82.6C173.852 82.8533 173.492 83.2267 173.212 83.72C172.945 84.2133 172.812 84.7933 172.812 85.46C172.812 86.1267 172.945 86.7067 173.212 87.2C173.492 87.6933 173.852 88.0733 174.292 88.34C174.745 88.5933 175.225 88.72 175.732 88.72C176.252 88.72 176.732 88.5867 177.172 88.32C177.625 88.0533 177.985 87.6733 178.252 87.18C178.532 86.6867 178.672 86.1 178.672 85.42ZM187.737 91.18C186.67 91.18 185.71 90.9467 184.857 90.48C184.003 90 183.33 89.3267 182.837 88.46C182.357 87.5933 182.117 86.5933 182.117 85.46C182.117 84.3267 182.363 83.3267 182.857 82.46C183.363 81.5933 184.05 80.9267 184.917 80.46C185.783 79.98 186.75 79.74 187.817 79.74C188.883 79.74 189.85 79.98 190.717 80.46C191.583 80.9267 192.263 81.5933 192.757 82.46C193.263 83.3267 193.517 84.3267 193.517 85.46C193.517 86.5933 193.257 87.5933 192.737 88.46C192.23 89.3267 191.537 90 190.657 90.48C189.79 90.9467 188.817 91.18 187.737 91.18ZM187.737 88.74C188.243 88.74 188.717 88.62 189.157 88.38C189.61 88.1267 189.97 87.7533 190.237 87.26C190.503 86.7667 190.637 86.1667 190.637 85.46C190.637 84.4067 190.357 83.6 189.797 83.04C189.25 82.4667 188.577 82.18 187.777 82.18C186.977 82.18 186.303 82.4667 185.757 83.04C185.223 83.6 184.957 84.4067 184.957 85.46C184.957 86.5133 185.217 87.3267 185.737 87.9C186.27 88.46 186.937 88.74 187.737 88.74ZM197.62 81.64C197.98 81.0533 198.447 80.5933 199.02 80.26C199.607 79.9267 200.274 79.76 201.02 79.76V82.7H200.28C199.4 82.7 198.734 82.9067 198.28 83.32C197.84 83.7333 197.62 84.4533 197.62 85.48V91H194.82V79.92H197.62V81.64ZM205.416 82.22V87.58C205.416 87.9533 205.503 88.2267 205.676 88.4C205.863 88.56 206.17 88.64 206.596 88.64H207.896V91H206.136C203.776 91 202.596 89.8533 202.596 87.56V82.22H201.276V79.92H202.596V77.18H205.416V79.92H207.896V82.22H205.416Z" fill="#0B1354"/>
<path d="M650.16 90L655.184 78.72H656.608L661.712 90H660L658.608 86.8L659.312 87.248H652.48L653.232 86.8L651.84 90H650.16ZM655.872 80.544L653.44 86.288L653.056 85.92H658.736L658.416 86.288L655.936 80.544H655.872ZM666.069 90.144C665.365 90.144 664.741 89.9787 664.197 89.648C663.664 89.3173 663.248 88.8373 662.949 88.208C662.661 87.5787 662.517 86.832 662.517 85.968C662.517 85.0933 662.661 84.3467 662.949 83.728C663.248 83.1093 663.664 82.6347 664.197 82.304C664.741 81.9627 665.365 81.792 666.069 81.792C666.762 81.792 667.37 81.968 667.893 82.32C668.426 82.6613 668.778 83.1307 668.949 83.728H668.757V78.224H670.373V90H668.773V88.176H668.965C668.784 88.784 668.432 89.264 667.909 89.616C667.386 89.968 666.773 90.144 666.069 90.144ZM666.469 88.88C667.162 88.88 667.722 88.6347 668.149 88.144C668.576 87.6533 668.789 86.928 668.789 85.968C668.789 85.008 668.576 84.288 668.149 83.808C667.722 83.3173 667.162 83.072 666.469 83.072C665.765 83.072 665.2 83.3173 664.773 83.808C664.357 84.288 664.149 85.008 664.149 85.968C664.149 86.928 664.357 87.6533 664.773 88.144C665.2 88.6347 665.765 88.88 666.469 88.88ZM675.819 90.144C675.115 90.144 674.491 89.9787 673.947 89.648C673.414 89.3173 672.998 88.8373 672.699 88.208C672.411 87.5787 672.267 86.832 672.267 85.968C672.267 85.0933 672.411 84.3467 672.699 83.728C672.998 83.1093 673.414 82.6347 673.947 82.304C674.491 81.9627 675.115 81.792 675.819 81.792C676.512 81.792 677.12 81.968 677.643 82.32C678.176 82.6613 678.528 83.1307 678.699 83.728H678.507V78.224H680.123V90H678.523V88.176H678.715C678.534 88.784 678.182 89.264 677.659 89.616C677.136 89.968 676.523 90.144 675.819 90.144ZM676.219 88.88C676.912 88.88 677.472 88.6347 677.899 88.144C678.326 87.6533 678.539 86.928 678.539 85.968C678.539 85.008 678.326 84.288 677.899 83.808C677.472 83.3173 676.912 83.072 676.219 83.072C675.515 83.072 674.95 83.3173 674.523 83.808C674.107 84.288 673.899 85.008 673.899 85.968C673.899 86.928 674.107 87.6533 674.523 88.144C674.95 88.6347 675.515 88.88 676.219 88.88ZM685.723 90L690.747 78.72H692.171L697.275 90H695.562L694.171 86.8L694.875 87.248H688.043L688.795 86.8L687.403 90H685.723ZM691.435 80.544L689.003 86.288L688.619 85.92H694.299L693.979 86.288L691.499 80.544H691.435ZM702.079 90.144C701.269 90.144 700.559 89.9787 699.951 89.648C699.354 89.3067 698.89 88.8213 698.559 88.192C698.239 87.552 698.079 86.7947 698.079 85.92C698.079 85.056 698.245 84.3147 698.575 83.696C698.906 83.0773 699.37 82.608 699.967 82.288C700.565 81.9573 701.269 81.792 702.079 81.792C702.602 81.792 703.109 81.8827 703.599 82.064C704.09 82.2347 704.495 82.48 704.815 82.8L704.287 83.936C703.989 83.648 703.653 83.4347 703.279 83.296C702.906 83.1467 702.543 83.072 702.191 83.072C701.423 83.072 700.821 83.3173 700.383 83.808C699.946 84.2987 699.727 85.008 699.727 85.936C699.727 86.8747 699.946 87.5947 700.383 88.096C700.821 88.5973 701.423 88.848 702.191 88.848C702.533 88.848 702.89 88.784 703.263 88.656C703.637 88.5173 703.978 88.2987 704.287 88L704.815 89.136C704.485 89.456 704.069 89.7067 703.567 89.888C703.077 90.0587 702.581 90.144 702.079 90.144ZM709.679 90.144C708.805 90.144 708.143 89.9093 707.695 89.44C707.247 88.96 707.023 88.2453 707.023 87.296V83.184H705.455V81.936H707.023V79.808L708.639 79.376V81.936H710.879V83.184H708.639V87.152C708.639 87.7493 708.746 88.176 708.959 88.432C709.173 88.688 709.482 88.816 709.887 88.816C710.09 88.816 710.266 88.8 710.415 88.768C710.575 88.7253 710.719 88.6773 710.847 88.624V89.936C710.687 90 710.501 90.048 710.287 90.08C710.074 90.1227 709.871 90.144 709.679 90.144ZM712.356 90V81.936H713.972V90H712.356ZM712.228 80.256V78.576H714.1V80.256H712.228ZM718.708 90L715.252 81.936H716.98L719.7 88.672H719.236L722.004 81.936H723.652L720.18 90H718.708ZM724.934 90V81.936H726.55V90H724.934ZM724.806 80.256V78.576H726.678V80.256H724.806ZM732.054 90.144C731.18 90.144 730.518 89.9093 730.07 89.44C729.622 88.96 729.398 88.2453 729.398 87.296V83.184H727.83V81.936H729.398V79.808L731.014 79.376V81.936H733.254V83.184H731.014V87.152C731.014 87.7493 731.121 88.176 731.334 88.432C731.548 88.688 731.857 88.816 732.262 88.816C732.465 88.816 732.641 88.8 732.79 88.768C732.95 88.7253 733.094 88.6773 733.222 88.624V89.936C733.062 90 732.876 90.048 732.662 90.08C732.449 90.1227 732.246 90.144 732.054 90.144ZM734.6 93.632L734.216 92.32C734.718 92.2133 735.134 92.0853 735.464 91.936C735.806 91.7867 736.088 91.5893 736.312 91.344C736.536 91.1093 736.728 90.8053 736.888 90.432L737.288 89.488L737.256 90.144L733.752 81.936H735.48L738.2 88.656H737.768L740.488 81.936H742.152L738.456 90.576C738.222 91.1093 737.971 91.5573 737.704 91.92C737.438 92.2827 737.15 92.576 736.84 92.8C736.531 93.024 736.19 93.2 735.816 93.328C735.443 93.456 735.038 93.5573 734.6 93.632Z" fill="#6A6969"/>
<rect x="108.784" y="145.915" width="626.381" height="146.243" stroke="#ECECEC"/>
<path d="M108.284 172.747H735.665" stroke="#ECECEC"/>
<path d="M108.284 203.607H735.665" stroke="#ECECEC"/>
<path d="M108.284 234.466H735.665" stroke="#ECECEC"/>
<path d="M108.284 265.325H735.665" stroke="#ECECEC"/>
<path d="M213.015 145.415L213.015 292.658" stroke="#ECECEC"/>
<path d="M316.747 145.415L316.747 292.658" stroke="#ECECEC"/>
<path d="M420.479 145.415L420.479 292.658" stroke="#ECECEC"/>
<path d="M525.209 145.415L525.209 292.658" stroke="#ECECEC"/>
<path d="M628.942 145.415L628.942 292.658" stroke="#ECECEC"/>
<path d="M82.217 289.244V290.182H78.3988V289.244H82.217ZM87.0377 285.349V294.076H85.9809V286.457H85.9297L83.799 287.872V286.798L85.9809 285.349H87.0377ZM92.3942 294.196C91.7522 294.196 91.2053 294.021 90.7536 293.672C90.3019 293.319 89.9567 292.809 89.7181 292.142C89.4794 291.471 89.3601 290.662 89.3601 289.713C89.3601 288.77 89.4794 287.964 89.7181 287.297C89.9595 286.626 90.3061 286.115 90.7578 285.763C91.2124 285.407 91.7578 285.23 92.3942 285.23C93.0306 285.23 93.5746 285.407 94.0263 285.763C94.4809 286.115 94.8274 286.626 95.0661 287.297C95.3076 287.964 95.4283 288.77 95.4283 289.713C95.4283 290.662 95.309 291.471 95.0703 292.142C94.8317 292.809 94.4865 293.319 94.0348 293.672C93.5831 294.021 93.0363 294.196 92.3942 294.196ZM92.3942 293.258C93.0306 293.258 93.5249 292.951 93.8772 292.338C94.2294 291.724 94.4056 290.849 94.4056 289.713C94.4056 288.957 94.3246 288.314 94.1627 287.782C94.0036 287.251 93.7735 286.846 93.4723 286.568C93.174 286.29 92.8147 286.15 92.3942 286.15C91.7635 286.15 91.2706 286.461 90.9155 287.084C90.5604 287.703 90.3828 288.579 90.3828 289.713C90.3828 290.468 90.4624 291.111 90.6215 291.639C90.7806 292.167 91.0093 292.569 91.3076 292.845C91.6087 293.12 91.9709 293.258 92.3942 293.258ZM92.3942 309.196C91.7522 309.196 91.2053 309.021 90.7536 308.672C90.3019 308.319 89.9567 307.809 89.7181 307.142C89.4794 306.471 89.3601 305.662 89.3601 304.713C89.3601 303.77 89.4794 302.964 89.7181 302.297C89.9595 301.626 90.3061 301.115 90.7578 300.763C91.2124 300.407 91.7578 300.23 92.3942 300.23C93.0306 300.23 93.5746 300.407 94.0263 300.763C94.4809 301.115 94.8274 301.626 95.0661 302.297C95.3076 302.964 95.4283 303.77 95.4283 304.713C95.4283 305.662 95.309 306.471 95.0703 307.142C94.8317 307.809 94.4865 308.319 94.0348 308.672C93.5831 309.021 93.0363 309.196 92.3942 309.196ZM92.3942 308.258C93.0306 308.258 93.5249 307.951 93.8772 307.338C94.2294 306.724 94.4056 305.849 94.4056 304.713C94.4056 303.957 94.3246 303.314 94.1627 302.782C94.0036 302.251 93.7735 301.846 93.4723 301.568C93.174 301.29 92.8147 301.15 92.3942 301.15C91.7635 301.15 91.2706 301.461 90.9155 302.084C90.5604 302.703 90.3828 303.579 90.3828 304.713C90.3828 305.468 90.4624 306.111 90.6215 306.639C90.7806 307.167 91.0093 307.569 91.3076 307.845C91.6087 308.12 91.9709 308.258 92.3942 308.258Z" fill="#4F4F4F"/>
<path d="M80.3068 261.911V262.849H76.4887V261.911H80.3068ZM84.9571 266.863C84.5991 266.858 84.2412 266.789 83.8832 266.659C83.5252 266.528 83.1985 266.308 82.9031 265.998C82.6076 265.686 82.3704 265.264 82.1914 264.733C82.0125 264.198 81.923 263.528 81.923 262.721C81.923 261.948 81.9954 261.264 82.1403 260.667C82.2852 260.068 82.4954 259.563 82.771 259.154C83.0465 258.742 83.3789 258.43 83.7681 258.217C84.1602 258.004 84.6019 257.897 85.0934 257.897C85.5821 257.897 86.0167 257.995 86.3974 258.191C86.7809 258.384 87.0934 258.654 87.3349 259.001C87.5764 259.348 87.7326 259.747 87.8037 260.198H86.7639C86.6673 259.806 86.4798 259.481 86.2014 259.223C85.923 258.964 85.5537 258.835 85.0934 258.835C84.4173 258.835 83.8846 259.129 83.4954 259.717C83.109 260.305 82.9144 261.13 82.9116 262.193H82.9798C83.1389 261.951 83.3278 261.745 83.5465 261.575C83.7681 261.402 84.0125 261.268 84.2795 261.174C84.5465 261.081 84.8292 261.034 85.1275 261.034C85.6275 261.034 86.0849 261.159 86.4997 261.409C86.9144 261.656 87.2468 261.998 87.4968 262.436C87.7468 262.87 87.8718 263.369 87.8718 263.931C87.8718 264.471 87.7511 264.965 87.5096 265.414C87.2681 265.86 86.9287 266.215 86.4912 266.48C86.0565 266.741 85.5451 266.869 84.9571 266.863ZM84.9571 265.926C85.315 265.926 85.636 265.836 85.9201 265.657C86.2071 265.478 86.4329 265.238 86.5977 264.937C86.7653 264.636 86.8491 264.301 86.8491 263.931C86.8491 263.571 86.7681 263.242 86.6062 262.947C86.4471 262.649 86.2269 262.411 85.9457 262.235C85.6673 262.059 85.3491 261.971 84.9912 261.971C84.7213 261.971 84.4698 262.025 84.2369 262.133C84.0039 262.238 83.7994 262.383 83.6233 262.568C83.45 262.752 83.3136 262.964 83.2142 263.203C83.1147 263.438 83.065 263.687 83.065 263.948C83.065 264.295 83.146 264.619 83.3079 264.92C83.4727 265.221 83.6971 265.464 83.9812 265.649C84.2681 265.833 84.5934 265.926 84.9571 265.926ZM92.3942 266.863C91.7522 266.863 91.2053 266.688 90.7536 266.339C90.3019 265.987 89.9567 265.477 89.7181 264.809C89.4794 264.139 89.3601 263.329 89.3601 262.38C89.3601 261.437 89.4794 260.632 89.7181 259.964C89.9595 259.294 90.3061 258.782 90.7578 258.43C91.2124 258.075 91.7578 257.897 92.3942 257.897C93.0306 257.897 93.5746 258.075 94.0263 258.43C94.4809 258.782 94.8274 259.294 95.0661 259.964C95.3076 260.632 95.4283 261.437 95.4283 262.38C95.4283 263.329 95.309 264.139 95.0703 264.809C94.8317 265.477 94.4865 265.987 94.0348 266.339C93.5831 266.688 93.0363 266.863 92.3942 266.863ZM92.3942 265.926C93.0306 265.926 93.5249 265.619 93.8772 265.005C94.2294 264.392 94.4056 263.517 94.4056 262.38C94.4056 261.625 94.3246 260.981 94.1627 260.45C94.0036 259.919 93.7735 259.514 93.4723 259.235C93.174 258.957 92.8147 258.818 92.3942 258.818C91.7635 258.818 91.2706 259.129 90.9155 259.751C90.5604 260.37 90.3828 261.247 90.3828 262.38C90.3828 263.136 90.4624 263.778 90.6215 264.306C90.7806 264.835 91.0093 265.237 91.3076 265.512C91.6087 265.788 91.9709 265.926 92.3942 265.926Z" fill="#4F4F4F"/>
<path d="M80.9397 231.052V231.99H77.1215V231.052H80.9397ZM82.282 235.884V235.117L85.1627 231.964C85.5007 231.595 85.7791 231.274 85.9979 231.001C86.2166 230.725 86.3786 230.467 86.4837 230.225C86.5916 229.981 86.6456 229.725 86.6456 229.458C86.6456 229.152 86.5718 228.886 86.424 228.661C86.2791 228.437 86.0803 228.264 85.8274 228.142C85.5746 228.019 85.2905 227.958 84.9752 227.958C84.6399 227.958 84.3473 228.028 84.0973 228.167C83.8502 228.304 83.6584 228.495 83.522 228.742C83.3885 228.99 83.3218 229.279 83.3218 229.612H82.3161C82.3161 229.1 82.434 228.652 82.6698 228.265C82.9056 227.879 83.2266 227.578 83.6328 227.362C84.0419 227.146 84.5007 227.038 85.0093 227.038C85.5206 227.038 85.9738 227.146 86.3686 227.362C86.7635 227.578 87.0732 227.869 87.2976 228.235C87.522 228.602 87.6343 229.009 87.6343 229.458C87.6343 229.779 87.576 230.093 87.4595 230.4C87.3459 230.704 87.147 231.044 86.863 231.419C86.5817 231.791 86.1911 232.245 85.6911 232.782L83.7309 234.879V234.947H87.7877V235.884H82.282ZM92.3942 236.004C91.7522 236.004 91.2053 235.829 90.7536 235.48C90.3019 235.127 89.9567 234.617 89.7181 233.95C89.4794 233.279 89.3601 232.47 89.3601 231.521C89.3601 230.578 89.4794 229.772 89.7181 229.105C89.9595 228.434 90.3061 227.923 90.7578 227.571C91.2124 227.215 91.7578 227.038 92.3942 227.038C93.0306 227.038 93.5746 227.215 94.0263 227.571C94.4809 227.923 94.8274 228.434 95.0661 229.105C95.3076 229.772 95.4283 230.578 95.4283 231.521C95.4283 232.47 95.309 233.279 95.0703 233.95C94.8317 234.617 94.4865 235.127 94.0348 235.48C93.5831 235.829 93.0363 236.004 92.3942 236.004ZM92.3942 235.066C93.0306 235.066 93.5249 234.759 93.8772 234.146C94.2294 233.532 94.4056 232.657 94.4056 231.521C94.4056 230.765 94.3246 230.122 94.1627 229.59C94.0036 229.059 93.7735 228.654 93.4723 228.376C93.174 228.098 92.8147 227.958 92.3942 227.958C91.7635 227.958 91.2706 228.269 90.9155 228.892C90.5604 229.511 90.3828 230.387 90.3828 231.521C90.3828 232.277 90.4624 232.919 90.6215 233.447C90.7806 233.975 91.0093 234.377 91.3076 234.653C91.6087 234.929 91.9709 235.066 92.3942 235.066Z" fill="#4F4F4F"/>
<path d="M82.282 205.025V204.258L85.1627 201.105C85.5007 200.735 85.7791 200.414 85.9979 200.142C86.2166 199.866 86.3786 199.607 86.4837 199.366C86.5916 199.122 86.6456 198.866 86.6456 198.599C86.6456 198.292 86.5718 198.027 86.424 197.802C86.2791 197.578 86.0803 197.404 85.8274 197.282C85.5746 197.16 85.2905 197.099 84.9752 197.099C84.6399 197.099 84.3473 197.169 84.0973 197.308C83.8502 197.444 83.6584 197.636 83.522 197.883C83.3885 198.13 83.3218 198.42 83.3218 198.752H82.3161C82.3161 198.241 82.434 197.792 82.6698 197.406C82.9056 197.019 83.2266 196.718 83.6328 196.502C84.0419 196.286 84.5007 196.179 85.0093 196.179C85.5206 196.179 85.9738 196.286 86.3686 196.502C86.7635 196.718 87.0732 197.009 87.2976 197.376C87.522 197.742 87.6343 198.15 87.6343 198.599C87.6343 198.92 87.576 199.234 87.4595 199.541C87.3459 199.845 87.147 200.184 86.863 200.559C86.5817 200.931 86.1911 201.386 85.6911 201.923L83.7309 204.019V204.088H87.7877V205.025H82.282ZM92.3942 205.144C91.7522 205.144 91.2053 204.97 90.7536 204.62C90.3019 204.268 89.9567 203.758 89.7181 203.09C89.4794 202.42 89.3601 201.61 89.3601 200.661C89.3601 199.718 89.4794 198.913 89.7181 198.245C89.9595 197.575 90.3061 197.063 90.7578 196.711C91.2124 196.356 91.7578 196.179 92.3942 196.179C93.0306 196.179 93.5746 196.356 94.0263 196.711C94.4809 197.063 94.8274 197.575 95.0661 198.245C95.3076 198.913 95.4283 199.718 95.4283 200.661C95.4283 201.61 95.309 202.42 95.0703 203.09C94.8317 203.758 94.4865 204.268 94.0348 204.62C93.5831 204.97 93.0363 205.144 92.3942 205.144ZM92.3942 204.207C93.0306 204.207 93.5249 203.9 93.8772 203.286C94.2294 202.673 94.4056 201.798 94.4056 200.661C94.4056 199.906 94.3246 199.262 94.1627 198.731C94.0036 198.2 93.7735 197.795 93.4723 197.517C93.174 197.238 92.8147 197.099 92.3942 197.099C91.7635 197.099 91.2706 197.41 90.9155 198.032C90.5604 198.652 90.3828 199.528 90.3828 200.661C90.3828 201.417 90.4624 202.059 90.6215 202.588C90.7806 203.116 91.0093 203.518 91.3076 203.794C91.6087 204.069 91.9709 204.207 92.3942 204.207Z" fill="#4F4F4F"/>
<path d="M84.9571 174.285C84.5991 174.279 84.2412 174.211 83.8832 174.08C83.5252 173.95 83.1985 173.73 82.9031 173.42C82.6076 173.107 82.3704 172.686 82.1914 172.154C82.0125 171.62 81.923 170.95 81.923 170.143C81.923 169.37 81.9954 168.686 82.1403 168.089C82.2852 167.49 82.4954 166.985 82.771 166.576C83.0465 166.164 83.3789 165.852 83.7681 165.639C84.1602 165.426 84.6019 165.319 85.0934 165.319C85.5821 165.319 86.0167 165.417 86.3974 165.613C86.7809 165.806 87.0934 166.076 87.3349 166.423C87.5764 166.769 87.7326 167.169 87.8037 167.62H86.7639C86.6673 167.228 86.4798 166.903 86.2014 166.644C85.923 166.386 85.5537 166.257 85.0934 166.257C84.4173 166.257 83.8846 166.551 83.4954 167.139C83.109 167.727 82.9144 168.552 82.9116 169.615H82.9798C83.1389 169.373 83.3278 169.167 83.5465 168.997C83.7681 168.823 84.0125 168.69 84.2795 168.596C84.5465 168.502 84.8292 168.455 85.1275 168.455C85.6275 168.455 86.0849 168.58 86.4997 168.83C86.9144 169.078 87.2468 169.42 87.4968 169.857C87.7468 170.292 87.8718 170.791 87.8718 171.353C87.8718 171.893 87.7511 172.387 87.5096 172.836C87.2681 173.282 86.9287 173.637 86.4912 173.902C86.0565 174.163 85.5451 174.291 84.9571 174.285ZM84.9571 173.348C85.315 173.348 85.636 173.258 85.9201 173.079C86.2071 172.9 86.4329 172.66 86.5977 172.359C86.7653 172.058 86.8491 171.723 86.8491 171.353C86.8491 170.992 86.7681 170.664 86.6062 170.369C86.4471 170.071 86.2269 169.833 85.9457 169.657C85.6673 169.481 85.3491 169.393 84.9912 169.393C84.7213 169.393 84.4698 169.447 84.2369 169.555C84.0039 169.66 83.7994 169.805 83.6233 169.99C83.45 170.174 83.3136 170.386 83.2142 170.625C83.1147 170.86 83.065 171.109 83.065 171.37C83.065 171.717 83.146 172.041 83.3079 172.342C83.4727 172.643 83.6971 172.886 83.9812 173.071C84.2681 173.255 84.5934 173.348 84.9571 173.348ZM92.3942 174.285C91.7522 174.285 91.2053 174.11 90.7536 173.761C90.3019 173.409 89.9567 172.899 89.7181 172.231C89.4794 171.561 89.3601 170.751 89.3601 169.802C89.3601 168.859 89.4794 168.054 89.7181 167.386C89.9595 166.715 90.3061 166.204 90.7578 165.852C91.2124 165.497 91.7578 165.319 92.3942 165.319C93.0306 165.319 93.5746 165.497 94.0263 165.852C94.4809 166.204 94.8274 166.715 95.0661 167.386C95.3076 168.054 95.4283 168.859 95.4283 169.802C95.4283 170.751 95.309 171.561 95.0703 172.231C94.8317 172.899 94.4865 173.409 94.0348 173.761C93.5831 174.11 93.0363 174.285 92.3942 174.285ZM92.3942 173.348C93.0306 173.348 93.5249 173.041 93.8772 172.427C94.2294 171.813 94.4056 170.938 94.4056 169.802C94.4056 169.046 94.3246 168.403 94.1627 167.872C94.0036 167.34 93.7735 166.936 93.4723 166.657C93.174 166.379 92.8147 166.24 92.3942 166.24C91.7635 166.24 91.2706 166.551 90.9155 167.173C90.5604 167.792 90.3828 168.669 90.3828 169.802C90.3828 170.558 90.4624 171.2 90.6215 171.728C90.7806 172.257 91.0093 172.659 91.3076 172.934C91.6087 173.21 91.9709 173.348 92.3942 173.348Z" fill="#4F4F4F"/>
<path d="M79.5377 138.106V146.833H78.4809V139.214H78.4297L76.299 140.629V139.555L78.4809 138.106H79.5377ZM84.8942 146.952C84.2522 146.952 83.7053 146.778 83.2536 146.428C82.8019 146.076 82.4567 145.566 82.2181 144.898C81.9794 144.228 81.8601 143.418 81.8601 142.47C81.8601 141.526 81.9794 140.721 82.2181 140.053C82.4595 139.383 82.8061 138.871 83.2578 138.519C83.7124 138.164 84.2578 137.987 84.8942 137.987C85.5306 137.987 86.0746 138.164 86.5263 138.519C86.9809 138.871 87.3274 139.383 87.5661 140.053C87.8076 140.721 87.9283 141.526 87.9283 142.47C87.9283 143.418 87.809 144.228 87.5703 144.898C87.3317 145.566 86.9865 146.076 86.5348 146.428C86.0831 146.778 85.5363 146.952 84.8942 146.952ZM84.8942 146.015C85.5306 146.015 86.0249 145.708 86.3772 145.095C86.7294 144.481 86.9056 143.606 86.9056 142.47C86.9056 141.714 86.8246 141.07 86.6627 140.539C86.5036 140.008 86.2735 139.603 85.9723 139.325C85.674 139.046 85.3147 138.907 84.8942 138.907C84.2635 138.907 83.7706 139.218 83.4155 139.84C83.0604 140.46 82.8828 141.336 82.8828 142.47C82.8828 143.225 82.9624 143.867 83.1215 144.396C83.2806 144.924 83.5093 145.326 83.8076 145.602C84.1087 145.877 84.4709 146.015 84.8942 146.015ZM92.3942 146.952C91.7522 146.952 91.2053 146.778 90.7536 146.428C90.3019 146.076 89.9567 145.566 89.7181 144.898C89.4794 144.228 89.3601 143.418 89.3601 142.47C89.3601 141.526 89.4794 140.721 89.7181 140.053C89.9595 139.383 90.3061 138.871 90.7578 138.519C91.2124 138.164 91.7578 137.987 92.3942 137.987C93.0306 137.987 93.5746 138.164 94.0263 138.519C94.4809 138.871 94.8274 139.383 95.0661 140.053C95.3076 140.721 95.4283 141.526 95.4283 142.47C95.4283 143.418 95.309 144.228 95.0703 144.898C94.8317 145.566 94.4865 146.076 94.0348 146.428C93.5831 146.778 93.0363 146.952 92.3942 146.952ZM92.3942 146.015C93.0306 146.015 93.5249 145.708 93.8772 145.095C94.2294 144.481 94.4056 143.606 94.4056 142.47C94.4056 141.714 94.3246 141.07 94.1627 140.539C94.0036 140.008 93.7735 139.603 93.4723 139.325C93.174 139.046 92.8147 138.907 92.3942 138.907C91.7635 138.907 91.2706 139.218 90.9155 139.84C90.5604 140.46 90.3828 141.336 90.3828 142.47C90.3828 143.225 90.4624 143.867 90.6215 144.396C90.7806 144.924 91.0093 145.326 91.3076 145.602C91.6087 145.877 91.9709 146.015 92.3942 146.015Z" fill="#4F4F4F"/>
<path d="M50 119.844H764" stroke="#ECECEC" stroke-width="2"/>
<rect x="283.354" y="156.994" width="22.2034" height="64.1272" rx="11.1017" fill="#FFA5CB" stroke="#F765A3" stroke-width="2"/>
<rect x="174.436" y="156.994" width="23.0102" height="64.1272" rx="11.5" fill="#FFA5CB" stroke="#F765A3" stroke-width="2"/>
<rect x="150.235" y="223.121" width="22.2034" height="19.1607" rx="3" fill="#E697FF" stroke="#A155B9" stroke-width="2"/>
<rect x="255.116" y="197.552" width="23.0102" height="23.5692" rx="3" fill="#E697FF" stroke="#A155B9" stroke-width="2"/>
<rect x="357.576" y="223.121" width="23.0102" height="61.4821" rx="3" fill="#E697FF" stroke="#A155B9" stroke-width="2"/>
<rect x="461.65" y="223.121" width="23.0102" height="16.5156" rx="3" fill="#E697FF" stroke="#A155B9" stroke-width="2"/>
<rect x="386.621" y="223.121" width="23.0102" height="16.5156" rx="3" fill="#FFA5CB" stroke="#F765A3" stroke-width="2"/>
<rect x="564.11" y="193.143" width="23.0102" height="27.096" rx="3" fill="#E697FF" stroke="#A155B9" stroke-width="2"/>
<rect x="592.348" y="193.143" width="23.0102" height="27.096" rx="3" fill="#FFA5CB" stroke="#F765A3" stroke-width="2"/>
<rect x="669.799" y="223.121" width="23.0102" height="36.7946" rx="3" fill="#E697FF" stroke="#A155B9" stroke-width="2"/>
<rect x="121.997" y="217.831" width="23.0102" height="3.29018" rx="1" fill="#63ABFD" stroke="#165BAA" stroke-width="2"/>
<rect x="330.146" y="207.251" width="22.2034" height="13.8705" rx="6" fill="#63ABFD" stroke="#165BAA" stroke-width="2"/>
<rect x="227.686" y="207.251" width="22.2034" height="13.8705" rx="6" fill="#63ABFD" stroke="#165BAA" stroke-width="2"/>
<rect x="434.22" y="223.121" width="23.0102" height="63.2455" rx="11.5" fill="#63ABFD" stroke="#165BAA" stroke-width="2"/>
<rect x="536.68" y="224.003" width="23.0102" height="23.5692" rx="11.5" fill="#63ABFD" stroke="#165BAA" stroke-width="2"/>
<rect x="489.081" y="224.003" width="22.2034" height="23.5692" rx="11.1017" fill="#FFA5CB" stroke="#F765A3" stroke-width="2"/>
<rect x="639.951" y="223.121" width="23.0102" height="57.0737" rx="11.5" fill="#63ABFD" stroke="#165BAA" stroke-width="2"/>
<rect x="697.229" y="164.929" width="23.0102" height="57.0737" rx="11.5" fill="#FFA5CB" stroke="#F765A3" stroke-width="2"/>
<rect x="108.085" y="348.177" width="24.7587" height="8" fill="#165BAA"/>
<path d="M141.901 356.677V347.95H142.958V355.739H147.015V356.677H141.901ZM148.515 356.677V350.131H149.52V356.677H148.515ZM149.026 349.041C148.83 349.041 148.661 348.974 148.519 348.84C148.38 348.707 148.31 348.546 148.31 348.359C148.31 348.171 148.38 348.011 148.519 347.877C148.661 347.744 148.83 347.677 149.026 347.677C149.222 347.677 149.39 347.744 149.529 347.877C149.671 348.011 149.742 348.171 149.742 348.359C149.742 348.546 149.671 348.707 149.529 348.84C149.39 348.974 149.222 349.041 149.026 349.041ZM154.277 350.131V350.984H150.749V350.131H154.277ZM151.806 356.677V349.228C151.806 348.853 151.894 348.541 152.07 348.291C152.246 348.041 152.475 347.853 152.756 347.728C153.037 347.603 153.334 347.541 153.646 347.541C153.894 347.541 154.095 347.56 154.252 347.6C154.408 347.64 154.524 347.677 154.601 347.711L154.311 348.58C154.26 348.563 154.189 348.542 154.098 348.516C154.01 348.491 153.894 348.478 153.749 348.478C153.416 348.478 153.176 348.562 153.029 348.729C152.884 348.897 152.811 349.143 152.811 349.467V356.677H151.806ZM158.533 350.131V350.984H155.141V350.131H158.533ZM156.13 348.563H157.135V354.802C157.135 355.086 157.177 355.299 157.259 355.441C157.344 355.58 157.452 355.674 157.583 355.722C157.716 355.768 157.857 355.791 158.005 355.791C158.116 355.791 158.206 355.785 158.277 355.773C158.348 355.759 158.405 355.748 158.448 355.739L158.652 356.643C158.584 356.668 158.489 356.694 158.367 356.719C158.245 356.748 158.09 356.762 157.902 356.762C157.618 356.762 157.34 356.701 157.067 356.579C156.797 356.457 156.573 356.271 156.394 356.021C156.218 355.771 156.13 355.455 156.13 355.075V348.563ZM160.046 356.677V350.131H161.052V356.677H160.046ZM160.557 349.041C160.361 349.041 160.192 348.974 160.05 348.84C159.911 348.707 159.841 348.546 159.841 348.359C159.841 348.171 159.911 348.011 160.05 347.877C160.192 347.744 160.361 347.677 160.557 347.677C160.753 347.677 160.921 347.744 161.06 347.877C161.202 348.011 161.273 348.171 161.273 348.359C161.273 348.546 161.202 348.707 161.06 348.84C160.921 348.974 160.753 349.041 160.557 349.041ZM163.899 352.739V356.677H162.894V350.131H163.865V351.154H163.95C164.104 350.822 164.337 350.555 164.649 350.353C164.962 350.148 165.365 350.046 165.86 350.046C166.303 350.046 166.69 350.137 167.023 350.319C167.355 350.498 167.614 350.771 167.798 351.137C167.983 351.501 168.075 351.961 168.075 352.518V356.677H167.07V352.586C167.07 352.072 166.936 351.671 166.669 351.384C166.402 351.094 166.036 350.95 165.57 350.95C165.249 350.95 164.962 351.019 164.709 351.158C164.459 351.298 164.261 351.501 164.117 351.768C163.972 352.035 163.899 352.359 163.899 352.739ZM172.555 359.268C172.069 359.268 171.652 359.205 171.302 359.08C170.953 358.958 170.662 358.796 170.429 358.594C170.199 358.396 170.015 358.183 169.879 357.955L170.68 357.393C170.771 357.512 170.886 357.648 171.025 357.802C171.165 357.958 171.355 358.093 171.596 358.207C171.841 358.323 172.16 358.381 172.555 358.381C173.084 358.381 173.52 358.254 173.863 357.998C174.207 357.742 174.379 357.342 174.379 356.796V355.467H174.294C174.22 355.586 174.115 355.734 173.978 355.91C173.845 356.083 173.652 356.238 173.399 356.374C173.149 356.508 172.811 356.575 172.385 356.575C171.856 356.575 171.382 356.45 170.961 356.2C170.544 355.95 170.213 355.586 169.969 355.109C169.727 354.631 169.606 354.052 169.606 353.37C169.606 352.7 169.724 352.116 169.96 351.619C170.196 351.119 170.524 350.732 170.944 350.46C171.365 350.184 171.851 350.046 172.402 350.046C172.828 350.046 173.166 350.117 173.416 350.259C173.669 350.398 173.862 350.558 173.996 350.737C174.132 350.913 174.237 351.058 174.311 351.171H174.413V350.131H175.385V356.864C175.385 357.427 175.257 357.884 175.001 358.237C174.748 358.592 174.407 358.852 173.978 359.016C173.552 359.184 173.078 359.268 172.555 359.268ZM172.521 355.671C172.924 355.671 173.265 355.579 173.544 355.394C173.822 355.21 174.034 354.944 174.179 354.597C174.324 354.251 174.396 353.836 174.396 353.353C174.396 352.881 174.325 352.465 174.183 352.104C174.041 351.744 173.831 351.461 173.552 351.256C173.274 351.052 172.93 350.95 172.521 350.95C172.095 350.95 171.74 351.058 171.456 351.273C171.174 351.489 170.963 351.779 170.821 352.143C170.682 352.506 170.612 352.91 170.612 353.353C170.612 353.808 170.683 354.21 170.825 354.559C170.97 354.906 171.183 355.178 171.464 355.377C171.748 355.573 172.101 355.671 172.521 355.671Z" fill="#4F4F4F"/>
<rect x="192.844" y="348.177" width="16.6429" height="8" fill="#A155B9"/>
<path d="M225.567 350.677H224.51C224.448 350.373 224.338 350.106 224.182 349.876C224.028 349.646 223.841 349.452 223.619 349.296C223.401 349.137 223.158 349.018 222.891 348.938C222.624 348.859 222.345 348.819 222.055 348.819C221.527 348.819 221.048 348.952 220.619 349.219C220.193 349.487 219.854 349.88 219.601 350.4C219.351 350.92 219.226 351.558 219.226 352.313C219.226 353.069 219.351 353.707 219.601 354.227C219.854 354.746 220.193 355.14 220.619 355.407C221.048 355.674 221.527 355.808 222.055 355.808C222.345 355.808 222.624 355.768 222.891 355.688C223.158 355.609 223.401 355.491 223.619 355.335C223.841 355.175 224.028 354.981 224.182 354.751C224.338 354.518 224.448 354.251 224.51 353.95H225.567C225.487 354.396 225.342 354.795 225.132 355.147C224.922 355.499 224.661 355.799 224.348 356.046C224.036 356.291 223.685 356.477 223.296 356.604C222.909 356.732 222.496 356.796 222.055 356.796C221.311 356.796 220.649 356.614 220.07 356.251C219.49 355.887 219.034 355.37 218.702 354.7C218.369 354.029 218.203 353.234 218.203 352.313C218.203 351.393 218.369 350.597 218.702 349.927C219.034 349.256 219.49 348.739 220.07 348.376C220.649 348.012 221.311 347.83 222.055 347.83C222.496 347.83 222.909 347.894 223.296 348.022C223.685 348.15 224.036 348.337 224.348 348.585C224.661 348.829 224.922 349.127 225.132 349.479C225.342 349.829 225.487 350.228 225.567 350.677ZM229.064 356.83C228.65 356.83 228.273 356.752 227.935 356.596C227.597 356.437 227.329 356.208 227.13 355.91C226.931 355.609 226.831 355.245 226.831 354.819C226.831 354.444 226.905 354.14 227.053 353.907C227.201 353.671 227.398 353.487 227.645 353.353C227.892 353.219 228.165 353.12 228.464 353.055C228.765 352.987 229.067 352.933 229.371 352.893C229.769 352.842 230.091 352.803 230.339 352.778C230.589 352.749 230.77 352.702 230.884 352.637C231 352.572 231.059 352.458 231.059 352.296V352.262C231.059 351.842 230.944 351.515 230.714 351.282C230.486 351.049 230.141 350.933 229.678 350.933C229.198 350.933 228.821 351.038 228.549 351.248C228.276 351.458 228.084 351.683 227.973 351.921L227.019 351.58C227.189 351.183 227.417 350.873 227.701 350.651C227.988 350.427 228.3 350.271 228.638 350.183C228.979 350.092 229.314 350.046 229.644 350.046C229.854 350.046 230.096 350.072 230.368 350.123C230.644 350.171 230.91 350.272 231.165 350.425C231.424 350.579 231.638 350.81 231.809 351.12C231.979 351.43 232.064 351.844 232.064 352.364V356.677H231.059V355.791H231.008C230.939 355.933 230.826 356.085 230.667 356.246C230.508 356.408 230.296 356.546 230.032 356.66C229.767 356.773 229.445 356.83 229.064 356.83ZM229.218 355.927C229.616 355.927 229.951 355.849 230.223 355.693C230.499 355.536 230.706 355.335 230.846 355.087C230.988 354.84 231.059 354.58 231.059 354.308V353.387C231.016 353.438 230.922 353.485 230.777 353.528C230.635 353.568 230.471 353.603 230.283 353.634C230.098 353.663 229.918 353.688 229.742 353.711C229.569 353.731 229.428 353.748 229.32 353.762C229.059 353.796 228.814 353.852 228.587 353.928C228.363 354.002 228.181 354.114 228.042 354.265C227.905 354.413 227.837 354.614 227.837 354.87C227.837 355.219 227.966 355.484 228.225 355.663C228.486 355.839 228.817 355.927 229.218 355.927ZM233.9 356.677V350.131H234.872V351.12H234.94C235.059 350.796 235.275 350.533 235.587 350.332C235.9 350.13 236.252 350.029 236.644 350.029C236.718 350.029 236.81 350.031 236.921 350.033C237.032 350.036 237.116 350.041 237.173 350.046V351.069C237.139 351.06 237.06 351.048 236.938 351.031C236.819 351.011 236.693 351.001 236.559 351.001C236.241 351.001 235.957 351.068 235.707 351.201C235.46 351.332 235.264 351.514 235.119 351.746C234.977 351.977 234.906 352.239 234.906 352.535V356.677H233.9ZM240.637 356.813C240.092 356.813 239.61 356.675 239.193 356.4C238.775 356.121 238.448 355.729 238.212 355.224C237.977 354.715 237.859 354.114 237.859 353.421C237.859 352.734 237.977 352.137 238.212 351.631C238.448 351.126 238.776 350.735 239.197 350.46C239.617 350.184 240.103 350.046 240.654 350.046C241.08 350.046 241.417 350.117 241.664 350.259C241.914 350.398 242.104 350.558 242.235 350.737C242.369 350.913 242.472 351.058 242.546 351.171H242.631V347.95H243.637V356.677H242.666V355.671H242.546C242.472 355.791 242.367 355.941 242.231 356.123C242.095 356.302 241.9 356.462 241.647 356.604C241.394 356.744 241.058 356.813 240.637 356.813ZM240.774 355.91C241.177 355.91 241.518 355.805 241.796 355.594C242.075 355.381 242.286 355.087 242.431 354.712C242.576 354.335 242.649 353.898 242.649 353.404C242.649 352.916 242.578 352.488 242.435 352.121C242.293 351.752 242.083 351.465 241.805 351.261C241.526 351.053 241.183 350.95 240.774 350.95C240.347 350.95 239.992 351.059 239.708 351.278C239.427 351.494 239.215 351.788 239.073 352.16C238.934 352.529 238.864 352.944 238.864 353.404C238.864 353.87 238.935 354.293 239.078 354.674C239.222 355.052 239.435 355.353 239.717 355.577C240.001 355.799 240.353 355.91 240.774 355.91ZM245.619 356.677V350.131H246.624V356.677H245.619ZM246.13 349.041C245.934 349.041 245.765 348.974 245.623 348.84C245.484 348.707 245.414 348.546 245.414 348.359C245.414 348.171 245.484 348.011 245.623 347.877C245.765 347.744 245.934 347.677 246.13 347.677C246.326 347.677 246.494 347.744 246.633 347.877C246.775 348.011 246.846 348.171 246.846 348.359C246.846 348.546 246.775 348.707 246.633 348.84C246.494 348.974 246.326 349.041 246.13 349.041ZM251.125 356.813C250.535 356.813 250.016 356.673 249.57 356.391C249.127 356.11 248.78 355.717 248.53 355.211C248.283 354.705 248.16 354.114 248.16 353.438C248.16 352.756 248.283 352.161 248.53 351.653C248.78 351.144 249.127 350.749 249.57 350.468C250.016 350.187 250.535 350.046 251.125 350.046C251.716 350.046 252.233 350.187 252.677 350.468C253.123 350.749 253.469 351.144 253.716 351.653C253.966 352.161 254.091 352.756 254.091 353.438C254.091 354.114 253.966 354.705 253.716 355.211C253.469 355.717 253.123 356.11 252.677 356.391C252.233 356.673 251.716 356.813 251.125 356.813ZM251.125 355.91C251.574 355.91 251.944 355.795 252.233 355.565C252.523 355.335 252.738 355.032 252.877 354.657C253.016 354.282 253.086 353.876 253.086 353.438C253.086 353.001 253.016 352.593 252.877 352.215C252.738 351.837 252.523 351.532 252.233 351.299C251.944 351.066 251.574 350.95 251.125 350.95C250.677 350.95 250.307 351.066 250.017 351.299C249.728 351.532 249.513 351.837 249.374 352.215C249.235 352.593 249.165 353.001 249.165 353.438C249.165 353.876 249.235 354.282 249.374 354.657C249.513 355.032 249.728 355.335 250.017 355.565C250.307 355.795 250.677 355.91 251.125 355.91Z" fill="#4F4F4F"/>
<rect x="271.487" y="348.177" width="24.2408" height="8" fill="#F765A3"/>
<path d="M304.784 356.677V347.95H307.733C308.415 347.95 308.975 348.066 309.412 348.299C309.85 348.529 310.174 348.846 310.384 349.249C310.594 349.653 310.699 350.112 310.699 350.626C310.699 351.14 310.594 351.596 310.384 351.994C310.174 352.391 309.851 352.704 309.416 352.931C308.982 353.156 308.426 353.268 307.75 353.268H305.364V352.313H307.716C308.182 352.313 308.557 352.245 308.841 352.109C309.128 351.972 309.335 351.779 309.463 351.529C309.594 351.276 309.659 350.975 309.659 350.626C309.659 350.276 309.594 349.971 309.463 349.71C309.333 349.448 309.124 349.246 308.837 349.104C308.55 348.96 308.171 348.887 307.699 348.887H305.841V356.677H304.784ZM308.892 352.756L311.04 356.677H309.813L307.699 352.756H308.892ZM316.449 354.001V350.131H317.454V356.677H316.449V355.569H316.381C316.227 355.901 315.989 356.184 315.665 356.417C315.341 356.647 314.932 356.762 314.437 356.762C314.028 356.762 313.665 356.673 313.347 356.494C313.028 356.312 312.778 356.039 312.597 355.675C312.415 355.309 312.324 354.847 312.324 354.291V350.131H313.329V354.222C313.329 354.7 313.463 355.08 313.73 355.364C314 355.648 314.344 355.791 314.761 355.791C315.011 355.791 315.266 355.727 315.524 355.599C315.785 355.471 316.004 355.275 316.18 355.011C316.359 354.746 316.449 354.41 316.449 354.001ZM320.302 352.739V356.677H319.296V350.131H320.268V351.154H320.353C320.507 350.822 320.74 350.555 321.052 350.353C321.365 350.148 321.768 350.046 322.262 350.046C322.706 350.046 323.093 350.137 323.426 350.319C323.758 350.498 324.017 350.771 324.201 351.137C324.386 351.501 324.478 351.961 324.478 352.518V356.677H323.473V352.586C323.473 352.072 323.339 351.671 323.072 351.384C322.805 351.094 322.438 350.95 321.973 350.95C321.652 350.95 321.365 351.019 321.112 351.158C320.862 351.298 320.664 351.501 320.519 351.768C320.375 352.035 320.302 352.359 320.302 352.739ZM327.322 352.739V356.677H326.316V350.131H327.288V351.154H327.373C327.526 350.822 327.759 350.555 328.072 350.353C328.384 350.148 328.788 350.046 329.282 350.046C329.725 350.046 330.113 350.137 330.445 350.319C330.778 350.498 331.036 350.771 331.221 351.137C331.405 351.501 331.498 351.961 331.498 352.518V356.677H330.492V352.586C330.492 352.072 330.359 351.671 330.092 351.384C329.824 351.094 329.458 350.95 328.992 350.95C328.671 350.95 328.384 351.019 328.131 351.158C327.881 351.298 327.684 351.501 327.539 351.768C327.394 352.035 327.322 352.359 327.322 352.739ZM333.335 356.677V350.131H334.341V356.677H333.335ZM333.847 349.041C333.651 349.041 333.482 348.974 333.34 348.84C333.201 348.707 333.131 348.546 333.131 348.359C333.131 348.171 333.201 348.011 333.34 347.877C333.482 347.744 333.651 347.677 333.847 347.677C334.043 347.677 334.21 347.744 334.35 347.877C334.492 348.011 334.563 348.171 334.563 348.359C334.563 348.546 334.492 348.707 334.35 348.84C334.21 348.974 334.043 349.041 333.847 349.041ZM337.189 352.739V356.677H336.183V350.131H337.155V351.154H337.24C337.393 350.822 337.626 350.555 337.939 350.353C338.251 350.148 338.655 350.046 339.149 350.046C339.592 350.046 339.98 350.137 340.312 350.319C340.645 350.498 340.903 350.771 341.088 351.137C341.273 351.501 341.365 351.961 341.365 352.518V356.677H340.359V352.586C340.359 352.072 340.226 351.671 339.959 351.384C339.692 351.094 339.325 350.95 338.859 350.95C338.538 350.95 338.251 351.019 337.998 351.158C337.748 351.298 337.551 351.501 337.406 351.768C337.261 352.035 337.189 352.359 337.189 352.739ZM345.845 359.268C345.359 359.268 344.941 359.205 344.592 359.08C344.242 358.958 343.951 358.796 343.718 358.594C343.488 358.396 343.305 358.183 343.169 357.955L343.97 357.393C344.061 357.512 344.176 357.648 344.315 357.802C344.454 357.958 344.644 358.093 344.886 358.207C345.13 358.323 345.45 358.381 345.845 358.381C346.373 358.381 346.809 358.254 347.153 357.998C347.497 357.742 347.669 357.342 347.669 356.796V355.467H347.583C347.509 355.586 347.404 355.734 347.268 355.91C347.134 356.083 346.941 356.238 346.688 356.374C346.438 356.508 346.1 356.575 345.674 356.575C345.146 356.575 344.671 356.45 344.251 356.2C343.833 355.95 343.502 355.586 343.258 355.109C343.017 354.631 342.896 354.052 342.896 353.37C342.896 352.7 343.014 352.116 343.25 351.619C343.485 351.119 343.813 350.732 344.234 350.46C344.654 350.184 345.14 350.046 345.691 350.046C346.117 350.046 346.456 350.117 346.706 350.259C346.958 350.398 347.152 350.558 347.285 350.737C347.421 350.913 347.527 351.058 347.6 351.171H347.703V350.131H348.674V356.864C348.674 357.427 348.546 357.884 348.291 358.237C348.038 358.592 347.697 358.852 347.268 359.016C346.842 359.184 346.367 359.268 345.845 359.268ZM345.811 355.671C346.214 355.671 346.555 355.579 346.833 355.394C347.112 355.21 347.323 354.944 347.468 354.597C347.613 354.251 347.686 353.836 347.686 353.353C347.686 352.881 347.615 352.465 347.473 352.104C347.331 351.744 347.12 351.461 346.842 351.256C346.563 351.052 346.22 350.95 345.811 350.95C345.384 350.95 345.029 351.058 344.745 351.273C344.464 351.489 344.252 351.779 344.11 352.143C343.971 352.506 343.902 352.91 343.902 353.353C343.902 353.808 343.973 354.21 344.115 354.559C344.259 354.906 344.473 355.178 344.754 355.377C345.038 355.573 345.39 355.671 345.811 355.671Z" fill="#4F4F4F"/>
<path d="M155.302 298.911H156.182V304.11C156.182 304.574 156.097 304.968 155.927 305.292C155.756 305.617 155.516 305.863 155.206 306.031C154.896 306.199 154.53 306.283 154.108 306.283C153.711 306.283 153.357 306.211 153.047 306.066C152.737 305.92 152.493 305.711 152.315 305.441C152.138 305.172 152.049 304.851 152.049 304.479H152.915C152.915 304.685 152.966 304.865 153.068 305.019C153.172 305.17 153.314 305.289 153.494 305.374C153.674 305.459 153.879 305.502 154.108 305.502C154.362 305.502 154.577 305.449 154.755 305.342C154.932 305.235 155.067 305.079 155.16 304.873C155.254 304.665 155.302 304.41 155.302 304.11V298.911ZM159.439 306.311C159.093 306.311 158.779 306.246 158.498 306.116C158.216 305.984 157.992 305.793 157.827 305.544C157.661 305.293 157.578 304.99 157.578 304.635C157.578 304.323 157.64 304.069 157.763 303.875C157.886 303.679 158.05 303.525 158.256 303.414C158.462 303.302 158.689 303.22 158.938 303.165C159.189 303.108 159.441 303.063 159.694 303.03C160.026 302.988 160.295 302.956 160.501 302.934C160.709 302.911 160.86 302.872 160.955 302.817C161.052 302.763 161.101 302.668 161.101 302.533V302.505C161.101 302.154 161.005 301.882 160.813 301.688C160.624 301.494 160.336 301.397 159.95 301.397C159.55 301.397 159.236 301.484 159.009 301.659C158.782 301.835 158.622 302.022 158.53 302.221L157.734 301.936C157.876 301.605 158.066 301.347 158.302 301.162C158.541 300.975 158.802 300.845 159.084 300.772C159.368 300.696 159.647 300.658 159.922 300.658C160.097 300.658 160.298 300.679 160.525 300.722C160.755 300.762 160.976 300.846 161.189 300.974C161.405 301.102 161.584 301.295 161.726 301.553C161.868 301.811 161.939 302.157 161.939 302.59V306.184H161.101V305.445H161.058C161.001 305.563 160.907 305.69 160.774 305.825C160.641 305.96 160.465 306.075 160.245 306.169C160.025 306.264 159.756 306.311 159.439 306.311ZM159.567 305.559C159.898 305.559 160.177 305.493 160.405 305.363C160.634 305.233 160.807 305.065 160.923 304.859C161.041 304.653 161.101 304.436 161.101 304.209V303.442C161.065 303.485 160.987 303.524 160.866 303.559C160.748 303.592 160.611 303.622 160.454 303.648C160.3 303.672 160.15 303.693 160.003 303.712C159.859 303.729 159.742 303.743 159.652 303.755C159.434 303.783 159.23 303.829 159.041 303.893C158.854 303.955 158.702 304.048 158.586 304.174C158.473 304.297 158.416 304.465 158.416 304.678C158.416 304.969 158.524 305.189 158.739 305.338C158.957 305.485 159.233 305.559 159.567 305.559ZM164.306 302.902V306.184H163.468V300.729H164.278V301.581H164.349C164.477 301.304 164.671 301.082 164.931 300.914C165.192 300.743 165.528 300.658 165.94 300.658C166.309 300.658 166.632 300.734 166.909 300.885C167.186 301.034 167.402 301.262 167.556 301.567C167.71 301.87 167.787 302.254 167.787 302.718V306.184H166.949V302.775C166.949 302.346 166.837 302.012 166.615 301.773C166.392 301.532 166.087 301.411 165.699 301.411C165.431 301.411 165.192 301.469 164.981 301.585C164.773 301.701 164.608 301.87 164.488 302.093C164.367 302.315 164.306 302.585 164.306 302.902Z" fill="#4F4F4F"/>
<path d="M257.869 306.184V298.911H262.229V299.692H258.749V302.15H261.903V302.931H258.749V306.184H257.869ZM265.511 306.297C264.985 306.297 264.532 306.181 264.151 305.949C263.772 305.715 263.479 305.388 263.273 304.969C263.07 304.548 262.968 304.058 262.968 303.499C262.968 302.94 263.07 302.448 263.273 302.022C263.479 301.593 263.766 301.259 264.133 301.02C264.502 300.779 264.933 300.658 265.425 300.658C265.71 300.658 265.99 300.705 266.267 300.8C266.544 300.895 266.796 301.049 267.023 301.262C267.251 301.472 267.432 301.752 267.567 302.1C267.702 302.448 267.769 302.876 267.769 303.385V303.74H263.565V303.016H266.917C266.917 302.708 266.855 302.434 266.732 302.192C266.612 301.951 266.439 301.76 266.214 301.62C265.991 301.481 265.728 301.411 265.425 301.411C265.092 301.411 264.803 301.494 264.559 301.659C264.318 301.823 264.132 302.036 264.001 302.299C263.871 302.561 263.806 302.843 263.806 303.144V303.627C263.806 304.039 263.877 304.388 264.019 304.674C264.164 304.958 264.364 305.175 264.619 305.324C264.875 305.471 265.172 305.544 265.511 305.544C265.731 305.544 265.93 305.514 266.107 305.452C266.287 305.388 266.442 305.293 266.572 305.168C266.703 305.04 266.803 304.882 266.874 304.692L267.684 304.919C267.599 305.194 267.456 305.435 267.254 305.644C267.053 305.85 266.804 306.011 266.509 306.127C266.213 306.24 265.88 306.297 265.511 306.297ZM269.158 306.184V298.911H269.996V301.596H270.067C270.128 301.501 270.214 301.38 270.322 301.233C270.434 301.084 270.592 300.952 270.798 300.836C271.007 300.717 271.288 300.658 271.643 300.658C272.103 300.658 272.508 300.773 272.858 301.002C273.208 301.232 273.482 301.558 273.678 301.979C273.875 302.4 273.973 302.898 273.973 303.471C273.973 304.048 273.875 304.549 273.678 304.973C273.482 305.394 273.21 305.721 272.862 305.953C272.514 306.182 272.112 306.297 271.658 306.297C271.307 306.297 271.027 306.239 270.816 306.123C270.605 306.005 270.443 305.871 270.33 305.722C270.216 305.57 270.128 305.445 270.067 305.346H269.967V306.184H269.158ZM269.982 303.456C269.982 303.868 270.042 304.232 270.163 304.547C270.283 304.859 270.46 305.104 270.692 305.282C270.924 305.457 271.208 305.544 271.544 305.544C271.894 305.544 272.187 305.452 272.421 305.267C272.658 305.08 272.835 304.829 272.954 304.515C273.075 304.197 273.135 303.845 273.135 303.456C273.135 303.073 273.076 302.727 272.957 302.419C272.841 302.109 272.665 301.864 272.428 301.684C272.194 301.502 271.899 301.411 271.544 301.411C271.203 301.411 270.917 301.497 270.685 301.67C270.453 301.841 270.277 302.08 270.159 302.387C270.041 302.693 269.982 303.049 269.982 303.456Z" fill="#4F4F4F"/>
<path d="M360.302 298.911H361.353L363.825 304.948H363.91L366.382 298.911H367.433V306.184H366.609V300.658H366.538L364.265 306.184H363.47L361.197 300.658H361.126V306.184H360.302V298.911ZM370.69 306.311C370.345 306.311 370.031 306.246 369.749 306.116C369.467 305.984 369.244 305.793 369.078 305.544C368.912 305.293 368.829 304.99 368.829 304.635C368.829 304.323 368.891 304.069 369.014 303.875C369.137 303.679 369.302 303.525 369.508 303.414C369.714 303.302 369.941 303.22 370.189 303.165C370.44 303.108 370.693 303.063 370.946 303.03C371.277 302.988 371.546 302.956 371.752 302.934C371.96 302.911 372.112 302.872 372.207 302.817C372.304 302.763 372.352 302.668 372.352 302.533V302.505C372.352 302.154 372.256 301.882 372.064 301.688C371.875 301.494 371.587 301.397 371.202 301.397C370.801 301.397 370.488 301.484 370.261 301.659C370.033 301.835 369.873 302.022 369.781 302.221L368.986 301.936C369.128 301.605 369.317 301.347 369.554 301.162C369.793 300.975 370.053 300.845 370.335 300.772C370.619 300.696 370.899 300.658 371.173 300.658C371.348 300.658 371.55 300.679 371.777 300.722C372.006 300.762 372.228 300.846 372.441 300.974C372.656 301.102 372.835 301.295 372.977 301.553C373.119 301.811 373.19 302.157 373.19 302.59V306.184H372.352V305.445H372.31C372.253 305.563 372.158 305.69 372.025 305.825C371.893 305.96 371.716 306.075 371.496 306.169C371.276 306.264 371.007 306.311 370.69 306.311ZM370.818 305.559C371.149 305.559 371.429 305.493 371.656 305.363C371.886 305.233 372.059 305.065 372.175 304.859C372.293 304.653 372.352 304.436 372.352 304.209V303.442C372.317 303.485 372.238 303.524 372.118 303.559C371.999 303.592 371.862 303.622 371.706 303.648C371.552 303.672 371.402 303.693 371.255 303.712C371.11 303.729 370.993 303.743 370.903 303.755C370.685 303.783 370.482 303.829 370.292 303.893C370.105 303.955 369.954 304.048 369.838 304.174C369.724 304.297 369.667 304.465 369.667 304.678C369.667 304.969 369.775 305.189 369.991 305.338C370.208 305.485 370.484 305.559 370.818 305.559ZM374.72 306.184V300.729H375.53V301.553H375.586C375.686 301.283 375.866 301.064 376.126 300.896C376.387 300.728 376.68 300.644 377.007 300.644C377.068 300.644 377.145 300.645 377.238 300.647C377.33 300.65 377.4 300.653 377.447 300.658V301.51C377.419 301.503 377.354 301.493 377.252 301.478C377.152 301.462 377.047 301.453 376.936 301.453C376.671 301.453 376.434 301.509 376.226 301.62C376.02 301.729 375.856 301.881 375.735 302.075C375.617 302.267 375.558 302.486 375.558 302.732V306.184H374.72Z" fill="#4F4F4F"/>
<path d="M468.298 306.184H467.375L470.045 298.911H470.955L473.625 306.184H472.702L470.528 300.061H470.472L468.298 306.184ZM468.639 303.343H472.361V304.124H468.639V303.343ZM474.644 308.229V300.729H475.454V301.596H475.553C475.615 301.501 475.7 301.38 475.809 301.233C475.92 301.084 476.079 300.952 476.285 300.836C476.493 300.717 476.775 300.658 477.13 300.658C477.589 300.658 477.994 300.773 478.344 301.002C478.695 301.232 478.968 301.558 479.165 301.979C479.361 302.4 479.46 302.898 479.46 303.471C479.46 304.048 479.361 304.549 479.165 304.973C478.968 305.394 478.696 305.721 478.348 305.953C478 306.182 477.599 306.297 477.144 306.297C476.794 306.297 476.513 306.239 476.303 306.123C476.092 306.005 475.93 305.871 475.816 305.722C475.702 305.57 475.615 305.445 475.553 305.346H475.482V308.229H474.644ZM475.468 303.456C475.468 303.868 475.528 304.232 475.649 304.547C475.77 304.859 475.946 305.104 476.178 305.282C476.41 305.457 476.694 305.544 477.031 305.544C477.381 305.544 477.673 305.452 477.908 305.267C478.144 305.08 478.322 304.829 478.44 304.515C478.561 304.197 478.621 303.845 478.621 303.456C478.621 303.073 478.562 302.727 478.444 302.419C478.328 302.109 478.151 301.864 477.915 301.684C477.68 301.502 477.386 301.411 477.031 301.411C476.69 301.411 476.403 301.497 476.171 301.67C475.939 301.841 475.764 302.08 475.646 302.387C475.527 302.693 475.468 303.049 475.468 303.456ZM480.738 306.184V300.729H481.548V301.553H481.604C481.704 301.283 481.884 301.064 482.144 300.896C482.405 300.728 482.698 300.644 483.025 300.644C483.086 300.644 483.163 300.645 483.256 300.647C483.348 300.65 483.418 300.653 483.465 300.658V301.51C483.437 301.503 483.372 301.493 483.27 301.478C483.17 301.462 483.065 301.453 482.954 301.453C482.689 301.453 482.452 301.509 482.244 301.62C482.038 301.729 481.874 301.881 481.754 302.075C481.635 302.267 481.576 302.486 481.576 302.732V306.184H480.738Z" fill="#4F4F4F"/>
<path d="M571.451 298.911H572.502L574.974 304.948H575.059L577.531 298.911H578.582V306.184H577.758V300.658H577.687L575.414 306.184H574.619L572.346 300.658H572.275V306.184H571.451V298.911ZM581.839 306.311C581.493 306.311 581.18 306.246 580.898 306.116C580.616 305.984 580.393 305.793 580.227 305.544C580.061 305.293 579.978 304.99 579.978 304.635C579.978 304.323 580.04 304.069 580.163 303.875C580.286 303.679 580.451 303.525 580.657 303.414C580.863 303.302 581.09 303.22 581.338 303.165C581.589 303.108 581.841 303.063 582.095 303.03C582.426 302.988 582.695 302.956 582.901 302.934C583.109 302.911 583.261 302.872 583.355 302.817C583.453 302.763 583.501 302.668 583.501 302.533V302.505C583.501 302.154 583.405 301.882 583.213 301.688C583.024 301.494 582.736 301.397 582.35 301.397C581.95 301.397 581.637 301.484 581.409 301.659C581.182 301.835 581.022 302.022 580.93 302.221L580.135 301.936C580.277 301.605 580.466 301.347 580.703 301.162C580.942 300.975 581.202 300.845 581.484 300.772C581.768 300.696 582.047 300.658 582.322 300.658C582.497 300.658 582.698 300.679 582.926 300.722C583.155 300.762 583.377 300.846 583.59 300.974C583.805 301.102 583.984 301.295 584.126 301.553C584.268 301.811 584.339 302.157 584.339 302.59V306.184H583.501V305.445H583.458C583.402 305.563 583.307 305.69 583.174 305.825C583.042 305.96 582.865 306.075 582.645 306.169C582.425 306.264 582.156 306.311 581.839 306.311ZM581.967 305.559C582.298 305.559 582.578 305.493 582.805 305.363C583.035 305.233 583.207 305.065 583.323 304.859C583.442 304.653 583.501 304.436 583.501 304.209V303.442C583.466 303.485 583.387 303.524 583.267 303.559C583.148 303.592 583.011 303.622 582.855 303.648C582.701 303.672 582.551 303.693 582.404 303.712C582.259 303.729 582.142 303.743 582.052 303.755C581.834 303.783 581.631 303.829 581.441 303.893C581.254 303.955 581.103 304.048 580.987 304.174C580.873 304.297 580.816 304.465 580.816 304.678C580.816 304.969 580.924 305.189 581.14 305.338C581.357 305.485 581.633 305.559 581.967 305.559ZM585.869 306.184V300.729H586.707V306.184H585.869ZM586.295 299.82C586.132 299.82 585.991 299.764 585.872 299.653C585.756 299.542 585.698 299.408 585.698 299.252C585.698 299.096 585.756 298.962 585.872 298.85C585.991 298.739 586.132 298.684 586.295 298.684C586.458 298.684 586.598 298.739 586.714 298.85C586.832 298.962 586.891 299.096 586.891 299.252C586.891 299.408 586.832 299.542 586.714 299.653C586.598 299.764 586.458 299.82 586.295 299.82Z" fill="#4F4F4F"/>
<path d="M679.788 298.911H680.669V304.11C680.669 304.574 680.583 304.968 680.413 305.292C680.243 305.617 680.002 305.863 679.692 306.031C679.382 306.199 679.016 306.283 678.595 306.283C678.197 306.283 677.843 306.211 677.533 306.066C677.223 305.92 676.979 305.711 676.801 305.441C676.624 305.172 676.535 304.851 676.535 304.479H677.402C677.402 304.685 677.453 304.865 677.554 305.019C677.659 305.17 677.801 305.289 677.98 305.374C678.16 305.459 678.365 305.502 678.595 305.502C678.848 305.502 679.064 305.449 679.241 305.342C679.419 305.235 679.554 305.079 679.646 304.873C679.741 304.665 679.788 304.41 679.788 304.11V298.911ZM685.757 303.953V300.729H686.596V306.184H685.757V305.26H685.701C685.573 305.537 685.374 305.773 685.104 305.967C684.834 306.159 684.493 306.255 684.081 306.255C683.74 306.255 683.437 306.18 683.172 306.031C682.907 305.879 682.699 305.652 682.547 305.349C682.396 305.044 682.32 304.659 682.32 304.195V300.729H683.158V304.138C683.158 304.536 683.269 304.853 683.492 305.09C683.717 305.327 684.003 305.445 684.351 305.445C684.56 305.445 684.771 305.392 684.987 305.285C685.205 305.179 685.387 305.015 685.534 304.795C685.683 304.575 685.757 304.294 685.757 303.953ZM688.969 302.902V306.184H688.131V300.729H688.94V301.581H689.011C689.139 301.304 689.333 301.082 689.594 300.914C689.854 300.743 690.19 300.658 690.602 300.658C690.971 300.658 691.295 300.734 691.572 300.885C691.849 301.034 692.064 301.262 692.218 301.567C692.372 301.87 692.449 302.254 692.449 302.718V306.184H691.611V302.775C691.611 302.346 691.499 302.012 691.277 301.773C691.054 301.532 690.749 301.411 690.361 301.411C690.093 301.411 689.854 301.469 689.643 301.585C689.435 301.701 689.27 301.87 689.15 302.093C689.029 302.315 688.969 302.585 688.969 302.902Z" fill="#4F4F4F"/>
<defs>
<filter id="filter0_d_114_1860" x="0" y="0" width="813.616" height="438" filterUnits="userSpaceOnUse" color-interpolation-filters="sRGB">
<feFlood flood-opacity="0" result="BackgroundImageFix"/>
<feColorMatrix in="SourceAlpha" type="matrix" values="0 0 0 0 0 0 0 0 0 0 0 0 0 0 0 0 0 0 127 0" result="hardAlpha"/>
<feOffset dy="1"/>
<feGaussianBlur stdDeviation="25"/>
<feComposite in2="hardAlpha" operator="out"/>
<feColorMatrix type="matrix" values="0 0 0 0 0 0 0 0 0 0 0 0 0 0 0 0 0 0 0.08 0"/>
<feBlend mode="normal" in2="BackgroundImageFix" result="effect1_dropShadow_114_1860"/>
<feBlend mode="normal" in="SourceGraphic" in2="effect1_dropShadow_114_1860" result="shape"/>
</filter>
</defs>
</svg>
