<svg width="120" height="33" viewBox="0 0 120 33" fill="none" xmlns="http://www.w3.org/2000/svg">
<path d="M12.3334 30.2691L11.8001 26.0024C11.5112 25.8913 11.2392 25.758 10.9841 25.6024C10.729 25.4469 10.4788 25.2802 10.2334 25.1024L6.26676 26.7691L2.6001 20.4358L6.03343 17.8358C6.01121 17.6802 6.0001 17.5304 6.0001 17.3864V16.4864C6.0001 16.3415 6.01121 16.1913 6.03343 16.0358L2.6001 13.4358L6.26676 7.10242L10.2334 8.76909C10.4779 8.59131 10.7334 8.42465 11.0001 8.26909C11.2668 8.11354 11.5334 7.9802 11.8001 7.86909L12.3334 3.60242H19.6668L20.2001 7.86909C20.489 7.9802 20.7614 8.11354 21.0174 8.26909C21.2734 8.42465 21.5232 8.59131 21.7668 8.76909L25.7334 7.10242L29.4001 13.4358L25.9668 16.0358C25.989 16.1913 26.0001 16.3415 26.0001 16.4864V17.3851C26.0001 17.53 25.9779 17.6802 25.9334 17.8358L29.3668 20.4358L25.7001 26.7691L21.7668 25.1024C21.5223 25.2802 21.2668 25.4469 21.0001 25.6024C20.7334 25.758 20.4668 25.8913 20.2001 26.0024L19.6668 30.2691H12.3334ZM16.0668 21.6024C17.3557 21.6024 18.4557 21.1469 19.3668 20.2358C20.2779 19.3246 20.7334 18.2246 20.7334 16.9358C20.7334 15.6469 20.2779 14.5469 19.3668 13.6358C18.4557 12.7246 17.3557 12.2691 16.0668 12.2691C14.7557 12.2691 13.6499 12.7246 12.7494 13.6358C11.849 14.5469 11.3992 15.6469 11.4001 16.9358C11.4001 18.2246 11.8503 19.3246 12.7508 20.2358C13.6512 21.1469 14.7565 21.6024 16.0668 21.6024Z" fill="#707070"/>
<path d="M56.5781 14.2838C56.5099 13.6787 56.2287 13.2099 55.7344 12.8775C55.2401 12.5409 54.6179 12.3726 53.8679 12.3726C53.331 12.3726 52.8665 12.4578 52.4744 12.6282C52.0824 12.7944 51.7777 13.0245 51.5604 13.3186C51.3473 13.6083 51.2408 13.9386 51.2408 14.3093C51.2408 14.6204 51.3132 14.8889 51.4581 15.1147C51.6072 15.3406 51.8011 15.5302 52.0398 15.6836C52.2827 15.8328 52.5426 15.9585 52.8196 16.0608C53.0966 16.1588 53.3629 16.2397 53.6186 16.3037L54.897 16.636C55.3146 16.7383 55.7429 16.8768 56.1818 17.0515C56.6207 17.2262 57.0277 17.4564 57.4027 17.7419C57.7777 18.0274 58.0803 18.3811 58.3104 18.8029C58.5447 19.2248 58.6619 19.7298 58.6619 20.3179C58.6619 21.0593 58.4702 21.7177 58.0866 22.293C57.7074 22.8683 57.1555 23.3221 56.4311 23.6545C55.7109 23.9869 54.8395 24.1531 53.8168 24.1531C52.8366 24.1531 51.9886 23.9976 51.2727 23.6865C50.5568 23.3754 49.9964 22.9343 49.5916 22.3633C49.1868 21.788 48.9631 21.1062 48.9205 20.3179H50.902C50.9403 20.7909 51.0938 21.1851 51.3622 21.5004C51.6349 21.8115 51.9822 22.0437 52.4041 22.1971C52.8303 22.3463 53.2969 22.4208 53.804 22.4208C54.3622 22.4208 54.8587 22.3335 55.2933 22.1588C55.7322 21.9798 56.0774 21.7326 56.3288 21.4173C56.5803 21.0977 56.706 20.7248 56.706 20.2987C56.706 19.9109 56.5952 19.5934 56.3736 19.3463C56.1563 19.0991 55.8601 18.8946 55.4851 18.7326C55.1143 18.5707 54.6946 18.4279 54.2259 18.3044L52.679 17.8825C51.6307 17.597 50.7997 17.1772 50.1861 16.6233C49.5767 16.0693 49.272 15.3363 49.272 14.4244C49.272 13.6701 49.4766 13.0118 49.8857 12.4493C50.2947 11.8868 50.8487 11.45 51.5476 11.1389C52.2464 10.8235 53.0348 10.6659 53.9126 10.6659C54.799 10.6659 55.581 10.8214 56.2585 11.1325C56.9403 11.4436 57.4773 11.8718 57.8693 12.4173C58.2614 12.9585 58.4659 13.5806 58.483 14.2838H56.5781ZM65.1003 24.1339C64.133 24.1339 63.2999 23.9272 62.601 23.5139C61.9064 23.0963 61.3695 22.5103 60.9902 21.7561C60.6152 20.9976 60.4277 20.1091 60.4277 19.0906C60.4277 18.0849 60.6152 17.1985 60.9902 16.4315C61.3695 15.6645 61.8979 15.0657 62.5755 14.6353C63.2573 14.2049 64.0542 13.9897 64.9661 13.9897C65.5201 13.9897 66.057 14.0814 66.5769 14.2646C67.0968 14.4478 67.5634 14.7355 67.9767 15.1275C68.3901 15.5196 68.7161 16.0288 68.9547 16.6552C69.1934 17.2774 69.3127 18.0338 69.3127 18.9244V19.602H61.508V18.1701H67.4398C67.4398 17.6673 67.3375 17.222 67.133 16.8342C66.9284 16.4422 66.6408 16.1332 66.2701 15.9074C65.9036 15.6815 65.4732 15.5686 64.9789 15.5686C64.4419 15.5686 63.9732 15.7007 63.5726 15.9649C63.1763 16.2248 62.8695 16.5657 62.6522 16.9876C62.4391 17.4052 62.3326 17.8591 62.3326 18.3491V19.4677C62.3326 20.124 62.4476 20.6822 62.6777 21.1424C62.9121 21.6027 63.2381 21.9542 63.6557 22.1971C64.0733 22.4358 64.5613 22.5551 65.1195 22.5551C65.4817 22.5551 65.812 22.5039 66.1103 22.4017C66.4086 22.2951 66.6664 22.1375 66.8837 21.9287C67.101 21.7199 67.2672 21.462 67.3823 21.1552L69.1912 21.4812C69.0463 22.0139 68.7864 22.4805 68.4114 22.8811C68.0407 23.2774 67.574 23.5863 67.0115 23.8079C66.4533 24.0252 65.8162 24.1339 65.1003 24.1339ZM76.0163 14.1176V15.6517H70.6534V14.1176H76.0163ZM72.0916 11.7653H74.0028V21.0529C74.0028 21.4237 74.0582 21.7028 74.169 21.8903C74.2798 22.0735 74.4226 22.1993 74.5973 22.2674C74.7763 22.3314 74.9702 22.3633 75.179 22.3633C75.3324 22.3633 75.4666 22.3527 75.5817 22.3314C75.6967 22.3101 75.7862 22.293 75.8501 22.2802L76.1953 23.8591C76.0845 23.9017 75.9268 23.9443 75.7223 23.9869C75.5178 24.0338 75.2621 24.0593 74.9553 24.0636C74.4524 24.0721 73.9837 23.9826 73.549 23.7951C73.1143 23.6076 72.7628 23.3179 72.4943 22.9258C72.2259 22.5338 72.0916 22.0416 72.0916 21.4493V11.7653ZM82.7136 14.1176V15.6517H77.3507V14.1176H82.7136ZM78.7889 11.7653H80.7001V21.0529C80.7001 21.4237 80.7555 21.7028 80.8663 21.8903C80.9771 22.0735 81.1199 22.1993 81.2946 22.2674C81.4735 22.3314 81.6674 22.3633 81.8762 22.3633C82.0297 22.3633 82.1639 22.3527 82.2789 22.3314C82.394 22.3101 82.4835 22.293 82.5474 22.2802L82.8926 23.8591C82.7818 23.9017 82.6241 23.9443 82.4196 23.9869C82.215 24.0338 81.9593 24.0593 81.6525 24.0636C81.1497 24.0721 80.6809 23.9826 80.2463 23.7951C79.8116 23.6076 79.46 23.3179 79.1916 22.9258C78.9231 22.5338 78.7889 22.0416 78.7889 21.4493V11.7653ZM84.8278 23.9358V14.1176H86.739V23.9358H84.8278ZM85.793 12.6027C85.4606 12.6027 85.1751 12.4919 84.9364 12.2703C84.7021 12.0444 84.5849 11.776 84.5849 11.4649C84.5849 11.1495 84.7021 10.8811 84.9364 10.6595C85.1751 10.4336 85.4606 10.3207 85.793 10.3207C86.1254 10.3207 86.4087 10.4336 86.6431 10.6595C86.8817 10.8811 87.0011 11.1495 87.0011 11.4649C87.0011 11.776 86.8817 12.0444 86.6431 12.2703C86.4087 12.4919 86.1254 12.6027 85.793 12.6027ZM91.2214 18.1062V23.9358H89.3102V14.1176H91.1447V15.7156H91.2662C91.492 15.1957 91.8457 14.7781 92.3272 14.4627C92.813 14.1474 93.4245 13.9897 94.1618 13.9897C94.8308 13.9897 95.4167 14.1304 95.9196 14.4116C96.4224 14.6886 96.8123 15.102 97.0893 15.6517C97.3663 16.2014 97.5048 16.8811 97.5048 17.6907V23.9358H95.5936V17.9208C95.5936 17.2092 95.4082 16.6531 95.0375 16.2525C94.6667 15.8477 94.1575 15.6453 93.5098 15.6453C93.0666 15.6453 92.6724 15.7412 92.3272 15.9329C91.9863 16.1247 91.7157 16.4059 91.5154 16.7767C91.3194 17.1431 91.2214 17.5863 91.2214 18.1062ZM104.184 27.8221C103.405 27.8221 102.733 27.7199 102.171 27.5153C101.613 27.3108 101.157 27.0402 100.803 26.7035C100.449 26.3669 100.185 25.9983 100.01 25.5977L101.653 24.9201C101.768 25.1076 101.922 25.3058 102.113 25.5146C102.309 25.7277 102.574 25.9088 102.906 26.0579C103.243 26.2071 103.675 26.2816 104.204 26.2816C104.928 26.2816 105.527 26.1048 106 25.7511C106.473 25.4017 106.709 24.8434 106.709 24.0764V22.146H106.588C106.473 22.3548 106.307 22.587 106.089 22.8427C105.876 23.0984 105.582 23.32 105.207 23.5075C104.832 23.695 104.344 23.7887 103.743 23.7887C102.968 23.7887 102.269 23.6076 101.647 23.2454C101.029 22.8789 100.539 22.3399 100.177 21.6282C99.8187 20.9123 99.6397 20.0324 99.6397 18.9883C99.6397 17.9443 99.8166 17.0494 100.17 16.3037C100.528 15.5579 101.018 14.9869 101.64 14.5906C102.263 14.19 102.968 13.9897 103.756 13.9897C104.366 13.9897 104.858 14.092 105.233 14.2966C105.608 14.4968 105.9 14.7312 106.108 14.9997C106.322 15.2681 106.486 15.5047 106.601 15.7092H106.741V14.1176H108.614V24.1531C108.614 24.9968 108.418 25.6893 108.026 26.2305C107.634 26.7717 107.104 27.1723 106.434 27.4322C105.77 27.6922 105.02 27.8221 104.184 27.8221ZM104.165 22.2035C104.715 22.2035 105.18 22.0757 105.559 21.82C105.942 21.5601 106.232 21.1893 106.428 20.7078C106.628 20.222 106.729 19.6403 106.729 18.9627C106.729 18.3022 106.631 17.7206 106.434 17.2177C106.238 16.7149 105.951 16.3228 105.572 16.0416C105.192 15.7561 104.724 15.6133 104.165 15.6133C103.59 15.6133 103.111 15.7625 102.727 16.0608C102.344 16.3548 102.054 16.7554 101.858 17.2625C101.666 17.7696 101.57 18.3363 101.57 18.9627C101.57 19.6062 101.668 20.1708 101.864 20.6566C102.06 21.1424 102.35 21.5217 102.733 21.7944C103.121 22.0672 103.599 22.2035 104.165 22.2035ZM118.535 16.5146L116.802 16.8214C116.73 16.5998 116.615 16.3889 116.457 16.1886C116.304 15.9883 116.095 15.8243 115.831 15.6964C115.567 15.5686 115.236 15.5047 114.84 15.5047C114.299 15.5047 113.847 15.6261 113.485 15.869C113.123 16.1076 112.942 16.4166 112.942 16.7958C112.942 17.124 113.063 17.3882 113.306 17.5885C113.549 17.7887 113.941 17.9528 114.482 18.0806L116.042 18.4386C116.945 18.6474 117.618 18.9691 118.062 19.4038C118.505 19.8385 118.726 20.4031 118.726 21.0977C118.726 21.6858 118.556 22.2099 118.215 22.6701C117.878 23.1261 117.407 23.4841 116.802 23.744C116.202 24.0039 115.505 24.1339 114.712 24.1339C113.613 24.1339 112.716 23.8995 112.021 23.4308C111.327 22.9578 110.9 22.2866 110.743 21.4173L112.59 21.136C112.705 21.6176 112.942 21.9819 113.3 22.2291C113.657 22.472 114.124 22.5934 114.699 22.5934C115.326 22.5934 115.827 22.4635 116.202 22.2035C116.577 21.9393 116.764 21.6176 116.764 21.2383C116.764 20.9315 116.649 20.6737 116.419 20.4649C116.193 20.2561 115.846 20.0984 115.377 19.9919L113.715 19.6275C112.799 19.4187 112.121 19.0863 111.682 18.6304C111.248 18.1744 111.03 17.597 111.03 16.8981C111.03 16.3186 111.192 15.8115 111.516 15.3768C111.84 14.9422 112.287 14.6034 112.858 14.3605C113.43 14.1133 114.084 13.9897 114.821 13.9897C115.882 13.9897 116.717 14.2199 117.327 14.6801C117.936 15.136 118.339 15.7476 118.535 16.5146Z" fill="#707070"/>
</svg>
