<svg width="32" height="33" viewBox="0 0 32 33" fill="none" xmlns="http://www.w3.org/2000/svg">
<path d="M24.5002 18.4358C24.5002 18.8313 24.3829 19.218 24.1631 19.5469C23.9434 19.8758 23.631 20.1321 23.2656 20.2835C22.9001 20.4349 22.498 20.4745 22.11 20.3973C21.722 20.3202 21.3657 20.1297 21.086 19.85C20.8063 19.5703 20.6158 19.2139 20.5386 18.8259C20.4614 18.438 20.5011 18.0358 20.6524 17.6704C20.8038 17.3049 21.0601 16.9926 21.389 16.7728C21.7179 16.5531 22.1046 16.4358 22.5002 16.4358C23.0306 16.4358 23.5393 16.6465 23.9144 17.0215C24.2895 17.3966 24.5002 17.9053 24.5002 18.4358ZM29.5002 14.4358V24.4358C29.5002 25.4966 29.0788 26.514 28.3286 27.2642C27.5785 28.0143 26.5611 28.4358 25.5002 28.4358H7.50019C6.43932 28.4358 5.42191 28.0143 4.67176 27.2642C3.92162 26.514 3.50019 25.4966 3.50019 24.4358V9.55076C3.4848 9.01588 3.5769 8.48334 3.77102 7.98469C3.96514 7.48603 4.25734 7.0314 4.63031 6.6477C5.00329 6.264 5.44947 5.95903 5.94242 5.75086C6.43537 5.54269 6.96508 5.43554 7.50019 5.43576H24.0002C24.398 5.43576 24.7795 5.5938 25.0609 5.8751C25.3422 6.15641 25.5002 6.53794 25.5002 6.93576C25.5002 7.33359 25.3422 7.71512 25.0609 7.99642C24.7795 8.27773 24.398 8.43576 24.0002 8.43576H7.50019C7.36609 8.43569 7.23334 8.46259 7.10985 8.51487C6.98635 8.56714 6.87464 8.64372 6.78134 8.74005C6.68804 8.83638 6.61507 8.95049 6.56677 9.07559C6.51847 9.20069 6.49583 9.33423 6.50019 9.46826V9.47826C6.52119 9.74303 6.6427 9.98974 6.8398 10.1678C7.0369 10.3458 7.29465 10.4417 7.56019 10.4358H25.5002C26.5611 10.4358 27.5785 10.8572 28.3286 11.6073C29.0788 12.3575 29.5002 13.3749 29.5002 14.4358ZM26.5002 14.4358C26.5002 14.1705 26.3948 13.9162 26.2073 13.7287C26.0198 13.5411 25.7654 13.4358 25.5002 13.4358H7.56019C7.20256 13.4359 6.84636 13.3905 6.50019 13.3008V24.4358C6.50019 24.701 6.60555 24.9553 6.79308 25.1429C6.98062 25.3304 7.23497 25.4358 7.50019 25.4358H25.5002C25.7654 25.4358 26.0198 25.3304 26.2073 25.1429C26.3948 24.9553 26.5002 24.701 26.5002 24.4358V14.4358Z" fill="#707070"/>
</svg>
