<svg width="102" height="33" viewBox="0 0 102 33" fill="none" xmlns="http://www.w3.org/2000/svg">
<path d="M24.5002 18.4358C24.5002 18.8313 24.3829 19.218 24.1631 19.5469C23.9434 19.8758 23.631 20.1321 23.2656 20.2835C22.9001 20.4349 22.498 20.4745 22.11 20.3973C21.722 20.3202 21.3657 20.1297 21.086 19.85C20.8063 19.5703 20.6158 19.2139 20.5386 18.8259C20.4614 18.438 20.5011 18.0358 20.6524 17.6704C20.8038 17.3049 21.0601 16.9926 21.389 16.7728C21.7179 16.5531 22.1046 16.4358 22.5002 16.4358C23.0306 16.4358 23.5393 16.6465 23.9144 17.0215C24.2895 17.3966 24.5002 17.9053 24.5002 18.4358ZM29.5002 14.4358V24.4358C29.5002 25.4966 29.0788 26.514 28.3286 27.2642C27.5785 28.0143 26.5611 28.4358 25.5002 28.4358H7.50019C6.43932 28.4358 5.42191 28.0143 4.67176 27.2642C3.92162 26.514 3.50019 25.4966 3.50019 24.4358V9.55076C3.4848 9.01588 3.5769 8.48334 3.77102 7.98469C3.96514 7.48603 4.25734 7.0314 4.63031 6.6477C5.00329 6.264 5.44947 5.95903 5.94242 5.75086C6.43537 5.54269 6.96508 5.43554 7.50019 5.43576H24.0002C24.398 5.43576 24.7795 5.5938 25.0609 5.8751C25.3422 6.15641 25.5002 6.53794 25.5002 6.93576C25.5002 7.33359 25.3422 7.71512 25.0609 7.99642C24.7795 8.27773 24.398 8.43576 24.0002 8.43576H7.50019C7.36609 8.43569 7.23334 8.46259 7.10985 8.51487C6.98635 8.56714 6.87464 8.64372 6.78134 8.74005C6.68804 8.83638 6.61507 8.95049 6.56677 9.07559C6.51847 9.20069 6.49583 9.33423 6.50019 9.46826V9.47826C6.52119 9.74303 6.6427 9.98974 6.8398 10.1678C7.0369 10.3458 7.29465 10.4417 7.56019 10.4358H25.5002C26.5611 10.4358 27.5785 10.8572 28.3286 11.6073C29.0788 12.3575 29.5002 13.3749 29.5002 14.4358ZM26.5002 14.4358C26.5002 14.1705 26.3948 13.9162 26.2073 13.7287C26.0198 13.5411 25.7654 13.4358 25.5002 13.4358H7.56019C7.20256 13.4359 6.84636 13.3905 6.50019 13.3008V24.4358C6.50019 24.701 6.60555 24.9553 6.79308 25.1429C6.98062 25.3304 7.23497 25.4358 7.50019 25.4358H25.5002C25.7654 25.4358 26.0198 25.3304 26.2073 25.1429C26.3948 24.9553 26.5002 24.701 26.5002 24.4358V14.4358Z" fill="#707070"/>
<path d="M52.0014 23.9358L48.3707 10.8449H50.4482L52.9986 20.9826H53.12L55.7727 10.8449H57.831L60.4837 20.989H60.6051L63.1491 10.8449H65.233L61.5959 23.9358H59.608L56.853 14.1304H56.7507L53.9957 23.9358H52.0014ZM68.771 24.1531C68.1488 24.1531 67.5863 24.038 67.0835 23.8079C66.5806 23.5735 66.1822 23.2348 65.8881 22.7916C65.5984 22.3484 65.4535 21.8051 65.4535 21.1616C65.4535 20.6076 65.56 20.1517 65.7731 19.7937C65.9862 19.4358 66.2738 19.1524 66.636 18.9436C66.9982 18.7348 67.4031 18.5771 67.8505 18.4706C68.2979 18.364 68.7539 18.2831 69.2184 18.2277C69.8065 18.1595 70.2837 18.1041 70.6502 18.0615C71.0167 18.0146 71.283 17.94 71.4492 17.8377C71.6154 17.7355 71.6985 17.5693 71.6985 17.3392V17.2944C71.6985 16.7362 71.5408 16.3037 71.2255 15.9968C70.9144 15.69 70.4499 15.5366 69.832 15.5366C69.1886 15.5366 68.6815 15.6794 68.3107 15.9649C67.9442 16.2461 67.6907 16.5593 67.5501 16.9045L65.7539 16.4954C65.967 15.8988 66.2781 15.4173 66.6871 15.0508C67.1005 14.6801 67.5756 14.4116 68.1126 14.2454C68.6495 14.075 69.2141 13.9897 69.8065 13.9897C70.1985 13.9897 70.614 14.0366 71.0529 14.1304C71.4961 14.2199 71.9094 14.386 72.293 14.6289C72.6808 14.8718 72.9982 15.2191 73.2454 15.6708C73.4925 16.1183 73.6161 16.7 73.6161 17.4159V23.9358H71.7496V22.5934H71.6729C71.5494 22.8406 71.364 23.0835 71.1168 23.3221C70.8697 23.5608 70.5522 23.7589 70.1644 23.9166C69.7766 24.0743 69.3121 24.1531 68.771 24.1531ZM69.1864 22.619C69.7148 22.619 70.1665 22.5146 70.5415 22.3058C70.9208 22.097 71.2085 21.8243 71.4045 21.4876C71.6048 21.1467 71.7049 20.7824 71.7049 20.3946V19.1289C71.6367 19.1971 71.5046 19.261 71.3086 19.3207C71.1168 19.3761 70.8974 19.4251 70.6502 19.4677C70.4031 19.5061 70.1623 19.5423 69.9279 19.5764C69.6935 19.6062 69.4975 19.6318 69.3398 19.6531C68.9691 19.7 68.6303 19.7788 68.3235 19.8896C68.021 20.0004 67.7781 20.1602 67.5948 20.369C67.4158 20.5735 67.3263 20.8463 67.3263 21.1872C67.3263 21.6602 67.5011 22.0181 67.8505 22.261C68.1999 22.4997 68.6452 22.619 69.1864 22.619ZM78.073 10.8449V23.9358H76.1618V10.8449H78.073ZM82.5554 10.8449V23.9358H80.6442V10.8449H82.5554ZM89.3581 24.1339C88.3908 24.1339 87.5577 23.9272 86.8588 23.5139C86.1642 23.0963 85.6273 22.5103 85.248 21.7561C84.873 20.9976 84.6855 20.1091 84.6855 19.0906C84.6855 18.0849 84.873 17.1985 85.248 16.4315C85.6273 15.6645 86.1557 15.0657 86.8333 14.6353C87.5151 14.2049 88.312 13.9897 89.2239 13.9897C89.7779 13.9897 90.3148 14.0814 90.8347 14.2646C91.3546 14.4478 91.8212 14.7355 92.2346 15.1275C92.6479 15.5196 92.9739 16.0288 93.2125 16.6552C93.4512 17.2774 93.5705 18.0338 93.5705 18.9244V19.602H85.7658V18.1701H91.6976C91.6976 17.6673 91.5953 17.222 91.3908 16.8342C91.1863 16.4422 90.8986 16.1332 90.5279 15.9074C90.1614 15.6815 89.731 15.5686 89.2367 15.5686C88.6998 15.5686 88.231 15.7007 87.8304 15.9649C87.4341 16.2248 87.1273 16.5657 86.91 16.9876C86.6969 17.4052 86.5904 17.8591 86.5904 18.3491V19.4677C86.5904 20.124 86.7054 20.6822 86.9355 21.1424C87.1699 21.6027 87.4959 21.9542 87.9135 22.1971C88.3311 22.4358 88.8191 22.5551 89.3773 22.5551C89.7395 22.5551 90.0698 22.5039 90.3681 22.4017C90.6664 22.2951 90.9242 22.1375 91.1415 21.9287C91.3588 21.7199 91.525 21.462 91.6401 21.1552L93.449 21.4812C93.3042 22.0139 93.0442 22.4805 92.6692 22.8811C92.2985 23.2774 91.8319 23.5863 91.2694 23.8079C90.7111 24.0252 90.074 24.1339 89.3581 24.1339ZM100.274 14.1176V15.6517H94.9112V14.1176H100.274ZM96.3494 11.7653H98.2607V21.0529C98.2607 21.4237 98.3161 21.7028 98.4268 21.8903C98.5376 22.0735 98.6804 22.1993 98.8551 22.2674C99.0341 22.3314 99.228 22.3633 99.4368 22.3633C99.5902 22.3633 99.7244 22.3527 99.8395 22.3314C99.9545 22.3101 100.044 22.293 100.108 22.2802L100.453 23.8591C100.342 23.9017 100.185 23.9443 99.9801 23.9869C99.7756 24.0338 99.5199 24.0593 99.2131 24.0636C98.7102 24.0721 98.2415 23.9826 97.8068 23.7951C97.3722 23.6076 97.0206 23.3179 96.7521 22.9258C96.4837 22.5338 96.3494 22.0416 96.3494 21.4493V11.7653Z" fill="#707070"/>
</svg>
